<svg id="svg2" xmlns:rdf="http://www.w3.org/1999/02/22-rdf-syntax-ns#" xmlns="http://www.w3.org/2000/svg" height="120" viewBox="0 0 119.99881 119.99881" width="120" version="1.1" xmlns:cc="http://creativecommons.org/ns#" xmlns:dc="http://purl.org/dc/elements/1.1/">
 <g id="layer1" transform="translate(0 -932.36)">
  <path id="rect4152" fill-rule="evenodd" fill="#212121" d="m24 932.36h72c13.296 0 24 10.704 24 24v72c0 13.296-10.704 24-24 24h-72c-13.296 0-24-10.704-24-24v-72c0-13.296 10.704-24 24-24z"/>
  <rect id="rect4138" rx="8" ry="16" height="16" width="80" y="1010.4" x="20" fill="#2196f3"/>
  <path id="rect4428" opacity=".75" d="m19.584 0.4082c-5.556 1.0256-10.427 3.9493-13.922 8.082l49.512 69.508h18.476l17.987-31.152-13.858-8-13.367 23.152-44.828-61.59z" transform="translate(0,932.36)" stroke-width="0" fill="#e3f2fd"/>
  <g id="g4156" transform="matrix(.75 0 0 .75 22 235.09)">
   <circle id="path4140" cy="1044.4" cx="8" r="8" fill="#fff"/>
   <circle id="circle4144" cy="1042.4" cx="10" r="4" fill="#212121"/>
  </g>
  <g id="g4160" transform="matrix(-.75 0 0 .75 98 235.09)">
   <path id="circle4162" fill="#fff" d="m16 1044.4a8 8 0 0 1 -8 8 8 8 0 0 1 -8 -8 8 8 0 0 1 8 -8 8 8 0 0 1 8 8z"/>
   <circle id="circle4164" cy="1041.4" cx="8.0952" r="4" fill="#212121"/>
  </g>
  <g id="g4476" transform="translate(0,24.801)">
   <path id="path4469" d="m68 989.56a8 8 0 0 1 -4 6.9282 8 8 0 0 1 -8 0 8 8 0 0 1 -4 -6.9282h8z" fill="#b71c1c"/>
   <path id="path4471" transform="translate(0,932.36)" fill="#f44336" d="m60.055 61.201a4 4 0 0 0 -1.9062 0.5332 4 4 0 0 0 -1.8672 2.4648 8 8 0 0 0 7.7383 -0.0059 4 4 0 0 0 -1.8711 -2.459 4 4 0 0 0 -2.0938 -0.5332z"/>
  </g>
  <g id="g4494" transform="matrix(.75 0 0 .75 22 235.09)">
   <path id="circle4496" fill="#fff" d="m16 1044.4a8 8 0 0 1 -8 8 8 8 0 0 1 -8 -8 8 8 0 0 1 8 -8 8 8 0 0 1 8 8z"/>
   <path id="circle4498" fill="#212121" d="m14 1041.9a4 4 0 0 1 -4 4 4 4 0 0 1 -4 -4 4 4 0 0 1 4 -4 4 4 0 0 1 4 4z"/>
  </g>
  <path id="path22" d="m76 976.36c0 4.4182 3.5818 8 8 8 4.4178 0 8-3.5818 8-8 0-4.4178-3.5822-8-8-8-4.4182 0-8 3.5822-8 8" fill="#2196f3"/>
 </g>
</svg>
