<?xml version="1.0" encoding="UTF-8" standalone="no"?>
<!-- Created with Inkscape (http://www.inkscape.org/) -->

<svg
   xmlns:dc="http://purl.org/dc/elements/1.1/"
   xmlns:cc="http://creativecommons.org/ns#"
   xmlns:rdf="http://www.w3.org/1999/02/22-rdf-syntax-ns#"
   xmlns:svg="http://www.w3.org/2000/svg"
   xmlns="http://www.w3.org/2000/svg"
   xmlns:sodipodi="http://sodipodi.sourceforge.net/DTD/sodipodi-0.dtd"
   xmlns:inkscape="http://www.inkscape.org/namespaces/inkscape"
   width="33.866665mm"
   height="33.866665mm"
   viewBox="0 0 119.99999 119.99999"
   id="svg2"
   version="1.1"
   inkscape:version="0.91 r13725"
   inkscape:export-filename="C:\Users\Dlean\Desktop\Projects\RepelBall\assets\png\icon.png"
   inkscape:export-xdpi="48"
   inkscape:export-ydpi="48"
   sodipodi:docname="icon.svg">
  <defs
     id="defs4">
    <clipPath
       clipPathUnits="userSpaceOnUse"
       id="clipPath16">
      <path
         d="M 0,36 36,36 36,0 0,0 0,36 Z"
         id="path18" />
    </clipPath>
    <clipPath
       clipPathUnits="userSpaceOnUse"
       id="clipPath4157">
      <rect
         rx="24"
         transform="scale(1,-1)"
         inkscape:export-ydpi="90"
         inkscape:export-xdpi="90"
         y="-1052.3622"
         x="0"
         height="120"
         width="120"
         id="rect4159"
         style="opacity:1;fill:#212121;fill-opacity:1;stroke:none;stroke-width:5.74100018;stroke-miterlimit:4;stroke-dasharray:none" />
    </clipPath>
  </defs>
  <sodipodi:namedview
     id="base"
     pagecolor="#ffffff"
     bordercolor="#666666"
     borderopacity="1.0"
     inkscape:pageopacity="0.0"
     inkscape:pageshadow="2"
     inkscape:zoom="3.1819806"
     inkscape:cx="-38.133113"
     inkscape:cy="74.568121"
     inkscape:document-units="px"
     inkscape:current-layer="layer1"
     showgrid="false"
     fit-margin-top="0"
     fit-margin-left="0"
     fit-margin-right="0"
     fit-margin-bottom="0"
     showguides="true"
     inkscape:window-width="1366"
     inkscape:window-height="705"
     inkscape:window-x="-8"
     inkscape:window-y="-8"
     inkscape:window-maximized="1" />
  <metadata
     id="metadata7">
    <rdf:RDF>
      <cc:Work
         rdf:about="">
        <dc:format>image/svg+xml</dc:format>
        <dc:type
           rdf:resource="http://purl.org/dc/dcmitype/StillImage" />
        <dc:title />
      </cc:Work>
    </rdf:RDF>
  </metadata>
  <g
     inkscape:label="Layer 1"
     inkscape:groupmode="layer"
     id="layer1"
     transform="translate(0,-932.36218)">
    <rect
       style="opacity:1;fill:#212121;fill-opacity:1;stroke:none;stroke-width:5.74100018;stroke-miterlimit:4;stroke-dasharray:none"
       id="rect4136"
       width="120"
       height="120"
       x="0"
       y="-1052.3622"
       inkscape:export-xdpi="90"
       inkscape:export-ydpi="90"
       transform="scale(1,-1)"
       rx="24" />
    <rect
       ry="16"
       rx="8"
       style="opacity:1;fill:#2196f3;fill-opacity:1;stroke:none;stroke-width:1;stroke-miterlimit:4;stroke-dasharray:none;stroke-opacity:1"
       id="rect4138"
       width="80"
       height="16"
       x="20"
       y="1010.3622"
       inkscape:export-xdpi="180"
       inkscape:export-ydpi="180" />
    <path
       style="opacity:0.75;fill:#e3f2fd;fill-opacity:1;stroke:#0d47a1;stroke-width:0;stroke-linecap:round;stroke-linejoin:round;stroke-miterlimit:4;stroke-dasharray:none;stroke-opacity:1"
       d="m 13.857426,924.9032 -13.8574219275414,8 55.1738279275414,77.457 18.476562,0 17.986328,-31.15232 -13.857422,-8 -13.367187,23.15232 z"
       id="rect4428"
       inkscape:connector-curvature="0"
       sodipodi:nodetypes="cccccccc"
       clip-path="url(#clipPath4157)" />
    <g
       id="g4156"
       transform="matrix(0.75,0,0,0.75,22,235.09057)">
      <circle
         r="8"
         cy="1044.3622"
         cx="8"
         id="path4140"
         style="opacity:1;fill:#ffffff;fill-opacity:1;stroke:none;stroke-width:5.74100018;stroke-miterlimit:4;stroke-dasharray:none" />
      <circle
         style="opacity:1;fill:#212121;fill-opacity:1;stroke:none;stroke-width:5.74100018;stroke-miterlimit:4;stroke-dasharray:none"
         id="circle4144"
         cx="10"
         cy="1042.3622"
         r="4" />
    </g>
    <g
       transform="matrix(-0.75,0,0,0.75,98,235.09057)"
       id="g4160">
      <circle
         style="opacity:1;fill:#ffffff;fill-opacity:1;stroke:none;stroke-width:5.74100018;stroke-miterlimit:4;stroke-dasharray:none"
         id="circle4162"
         cx="8"
         cy="1044.3622"
         r="8" />
      <circle
         r="4"
         cy="1041.4098"
         cx="8.0952377"
         id="circle4164"
         style="opacity:1;fill:#212121;fill-opacity:1;stroke:none;stroke-width:5.74100018;stroke-miterlimit:4;stroke-dasharray:none" />
    </g>
    <g
       id="g4217" />
    <g
       transform="matrix(0.75,0,0,0.75,24.146574,178.78599)"
       id="g4284" />
    <g
       id="g4476"
       transform="translate(0,24.800721)">
      <path
         d="m 68,989.56146 a 8,7.9999995 0 0 1 -4,6.92821 8,7.9999995 0 0 1 -8,0 8,7.9999995 0 0 1 -4,-6.92821 l 8,0 z"
         sodipodi:end="3.1415927"
         sodipodi:start="0"
         sodipodi:ry="7.9999995"
         sodipodi:rx="8"
         sodipodi:cy="989.56146"
         sodipodi:cx="60"
         sodipodi:type="arc"
         id="path4469"
         style="opacity:1;fill:#b71c1c;fill-opacity:1;stroke:none;stroke-width:0;stroke-linecap:round;stroke-linejoin:round;stroke-miterlimit:4;stroke-dasharray:none;stroke-opacity:1" />
      <path
         id="path4471"
         transform="translate(0,932.36218)"
         d="m 60.054688,61.201172 a 4,3.9999998 0 0 0 -1.90625,0.533203 4,3.9999998 0 0 0 -1.867188,2.464844 8,7.9999995 0 0 0 7.738281,-0.0059 4,3.9999998 0 0 0 -1.871093,-2.458984 4,3.9999998 0 0 0 -2.09375,-0.533203 z"
         style="opacity:1;fill:#f44336;fill-opacity:1;stroke:none;stroke-width:0;stroke-linecap:round;stroke-linejoin:round;stroke-miterlimit:4;stroke-dasharray:none;stroke-opacity:1"
         inkscape:connector-curvature="0" />
    </g>
    <g
       transform="matrix(0.75,0,0,0.75,22,235.09057)"
       id="g4494">
      <circle
         style="opacity:1;fill:#ffffff;fill-opacity:1;stroke:none;stroke-width:5.74100018;stroke-miterlimit:4;stroke-dasharray:none"
         id="circle4496"
         cx="8"
         cy="1044.3622"
         r="8" />
      <circle
         r="4"
         cy="1041.886"
         cx="10"
         id="circle4498"
         style="opacity:1;fill:#212121;fill-opacity:1;stroke:none;stroke-width:5.74100018;stroke-miterlimit:4;stroke-dasharray:none" />
    </g>
    <g
       id="g4416"
       transform="matrix(0.62499995,1.0825317,1.0825317,-0.62499995,55.020119,974.34978)">
      <g
         id="g20"
         transform="matrix(0.35555556,0,0,0.35555556,19.385276,19.273461)">
        <path
           d="m -27.000028,-15.588474 c 8.609159,-4.9705 19.6179572,-2.020701 24.5884568,6.588458 4.9699997,8.60829277 2.02070045,19.617957 -6.5884583,24.588457 -8.6082925,4.97 -19.6184575,2.019834 -24.5884565,-6.5884583 -4.9705,-8.60915878 -2.019835,-19.6184577 6.588458,-24.5884567"
           style="fill:#2196f3;fill-opacity:1;fill-rule:nonzero;stroke:none"
           id="path22"
           inkscape:connector-curvature="0" />
      </g>
    </g>
  </g>
</svg>
