<svg xmlns:rdf="http://www.w3.org/1999/02/22-rdf-syntax-ns#" xmlns="http://www.w3.org/2000/svg" height="320" viewBox="0 0 319.99682 319.99682" width="320" version="1.1" xmlns:cc="http://creativecommons.org/ns#" xmlns:dc="http://purl.org/dc/elements/1.1/">
<g transform="translate(0 -732.36)">
<path fill-rule="evenodd" fill="#212121" d="m63.999 732.36h192c35.456 0 63.999 28.544 63.999 63.999v192c0 35.456-28.544 63.999-63.999 63.999h-192c-35.456 0-64-28.6-64-64.04v-192c0-35.456 28.544-63.999 63.999-63.999z"/>
<g transform="translate(9.9997 -14.04)">
<path fill="#2196f3" d="m70 946.4h160c11.08 0 20 8.9199 20 20s-8.9199 20-20 20h-160c-11.08 0-20-8.9199-20-20s8.9199-20 20-20z"/>
<g transform="matrix(-2 0 0 2 246 -1122.4)">
<path d="m16 1044.4a8 8 0 0 1 -8 8 8 8 0 0 1 -8 -8 8 8 0 0 1 8 -8 8 8 0 0 1 8 8z" fill="#fff"/>
<circle cy="1041.4" cx="8" r="4" fill="#212121"/>
</g>
<g transform="matrix(2.5 0 0 2.5 .00019729 -1511.5)">
<path fill="#b71c1c" d="m68 989.56a8 8 0 0 1 -4 6.9282 8 8 0 0 1 -8 0 8 8 0 0 1 -4 -6.9282h8z"/>
<path fill="#f44336" d="m160.24 225.98a10 10 0 0 0 -5.24 1.34 10 10 0 0 0 -4.68 6.16 20 20 0 0 0 19.35 -0.01 10 10 0 0 0 -4.67 -6.15 10 10 0 0 0 -4.76 -1.34z" transform="matrix(.4 0 0 .4 -4 903.17)"/>
</g>
<g transform="matrix(.5 .86603 -.86603 .5 871.91 422.57)">
<path d="m85.999 966.38a16 16 0 0 1 -15.999 16 16 16 0 0 1 -16 -16 16 16 0 0 1 16 -16 16 16 0 0 1 15.999 16z" fill="#fff"/>
<path d="m77.999 960.38a7.9999 7.9999 0 0 1 -7.9999 7.9999 7.9999 7.9999 0 0 1 -7.9999 -7.9999 7.9999 7.9999 0 0 1 7.9999 -7.9999 7.9999 7.9999 0 0 1 7.9999 7.9999z" fill="#212121"/>
</g>
</g>
<path opacity=".75" style="color-rendering:auto;text-decoration-color:#000000;color:#000000;isolation:auto;mix-blend-mode:normal;shape-rendering:auto;solid-color:#000000;block-progression:tb;text-decoration-line:none;text-decoration-style:solid;image-rendering:auto;white-space:normal;text-indent:0;text-transform:none" d="m4 776.36 146.14 156h19.858l84.201-65.975-28.285-28.281-65.916 74.257z" fill-rule="evenodd" fill="#b3e5fc"/>
<path fill="#2196f3" d="m220 852.36c0 11.045 8.9544 20 20 20 11.044 0 20-8.9544 20-20 0-11.044-8.9554-20-20-20s-20 8.9554-20 20"/>
</g>
</svg>
