<svg id="svg2" xmlns:rdf="http://www.w3.org/1999/02/22-rdf-syntax-ns#" xmlns="http://www.w3.org/2000/svg" height="36" width="24" version="1.1" xmlns:cc="http://creativecommons.org/ns#" xmlns:dc="http://purl.org/dc/elements/1.1/" viewBox="0 0 24 36.000001">
 <g id="layer1" transform="translate(0 -1016.4)">
  <g id="g4146">
   <path id="path4136" d="m24 1016.4a12 12 0 0 1 -6 10.392 12 12 0 0 1 -12 0 12 12 0 0 1 -6 -10.4h12z" fill="#821414"/>
   <path id="path4138" d="m12.141 6.002a6 6 0 0 0 -3.141 0.8027 6 6 0 0 0 -2.8086 3.6933 12 12 0 0 0 11.61 -0.004 6 6 0 0 0 -2.801 -3.6893 6 6 0 0 0 -2.859 -0.8027z" transform="translate(0 1016.4)" fill="#d32f2f"/>
  </g>
  <g id="g4143" transform="matrix(1 0 0 -1 0 2068.7)">
   <g id="g4150" transform="matrix(1 0 0 -1 0 2056.7)">
    <path id="path4152" d="m24 1016.4a12 12 0 0 1 -6 10.392 12 12 0 0 1 -12 0 12 12 0 0 1 -6 -10.4h12z" fill="#821414"/>
   </g>
   <g id="g4156" fill="#d32f2f" transform="matrix(0.5 0 0 -0.5 6 1548.5)">
    <path id="path4158" fill="#d32f2f" d="m24 1016.4a12 12 0 0 1 -6 10.392 12 12 0 0 1 -12 0 12 12 0 0 1 -6 -10.4h12z"/>
   </g>
  </g>
  <circle id="path4160" cx="12" cy="1046.4" r="6" fill="#821414"/>
 </g>
</svg>
