<svg xmlns:rdf="http://www.w3.org/1999/02/22-rdf-syntax-ns#" xmlns="http://www.w3.org/2000/svg" height="36" width="24" version="1.1" xmlns:cc="http://creativecommons.org/ns#" xmlns:dc="http://purl.org/dc/elements/1.1/" viewBox="0 0 24 36.000001">
	<g>
		<path d="m24-0.000017383a12 12 0 0 1 -6 10.392 12 12 0 0 1 -12 0 12 12 0 0 1 -6 -10.392l12 5.5692e-7z" fill="#821414"/>
		<path d="m12.141 6.002a6 6 0 0 0 -3.141 0.8027 6 6 0 0 0 -2.8086 3.6933 12 12 0 0 0 11.61 -0.004 6 6 0 0 0 -2.801 -3.6893 6 6 0 0 0 -2.859 -0.8027z" fill="#d32f2f"/>
	</g>
	<g>
		<path d="m24 12a12 12 0 0 1 -6 10.392 12 12 0 0 1 -12 0 12 12 0 0 1 -6 -10.392l12 0.000001z" fill="#821414"/>
		<path d="m18 12a6 6 0 0 1 -3 5.1962 6 6 0 0 1 -6 0 6 6 0 0 1 -3 -5.1962h6z" fill="#d32f2f"/>
	</g>
	<path d="m18 30a6 6 0 0 1 -6 6 6 6 0 0 1 -6 -6 6 6 0 0 1 6 -6 6 6 0 0 1 6 6z" fill="#821414"/>
</svg>
