<svg xmlns:rdf="http://www.w3.org/1999/02/22-rdf-syntax-ns#" xmlns="http://www.w3.org/2000/svg" height="48" width="144" version="1.1" xmlns:cc="http://creativecommons.org/ns#" xmlns:dc="http://purl.org/dc/elements/1.1/" viewBox="0 0 143.99999 48.000032">
	<g>
		<circle opacity=".5" fill-rule="evenodd" cy="24" cx="120" r="24" fill="#39ff9f"/>
		<g fill-rule="evenodd">
			<path opacity=".5" d="m130.52 26.032 4.3077 10.4-28.153 5.5694z" fill="#8ef3c1"/>
			<circle cy="31.232" cx="132.67" r="5.6283" fill="#00e676"/>
		</g>
		<path opacity=".5" d="m121.28 10.637 11.907 9.1367-26.511 22.223z" fill="#8ef3c1"/>
		<path d="m119.98 17.148a7.5044 7.5044 0 0 1 5.3064 -9.191 7.5044 7.5044 0 0 1 9.191 5.3064 7.5044 7.5044 0 0 1 -5.3064 9.191 7.5044 7.5044 0 0 1 -9.191 -5.3064z" fill-rule="evenodd" fill="#00e676"/>
		<g fill-rule="evenodd">
			<path opacity=".5" d="m104.77 13.365 11.16 1.4694-9.2533 27.166z" fill="#8ef3c1"/>
			<circle cy="14.1" cx="110.35" r="5.6283" fill="#00e676"/>
		</g>
	</g>
	<g fill-rule="evenodd">
		<circle opacity=".5" cx="72" fill-opacity=".75" cy="24" r="24" fill="#4caaf5"/>
		<g>
			<path opacity=".5" d="m64.806 9.8869 11.086 4.5921-17.024 25.42z" fill="#90caf9"/>
			<circle cy="12.183" cx="70.349" r="6" fill="#2196f3"/>
			<path opacity=".5" d="m81.849 19.705 6 10.393-28.98 9.804z" fill="#90caf9"/>
			<circle cy="24.902" cx="84.849" r="6" fill="#2196f3"/>
		</g>
	</g>
	<g>
		<circle opacity=".5" fill-rule="evenodd" cx="24" cy="24" r="24" fill="#ff5722"/>
		<path opacity=".5" d="m27.071 9.6153 11.314 11.314-31.113 19.799z" fill="#ffccbc"/>
		<circle fill-rule="evenodd" cy="15.272" cx="32.728" r="8" fill="#ff5722"/>
	</g>
</svg>
