<svg id="svg2" xmlns:rdf="http://www.w3.org/1999/02/22-rdf-syntax-ns#" xmlns="http://www.w3.org/2000/svg" height="48" width="96" version="1.1" xmlns:cc="http://creativecommons.org/ns#" xmlns:xlink="http://www.w3.org/1999/xlink" viewBox="0 0 96.000004 48.000001" xmlns:dc="http://purl.org/dc/elements/1.1/">
 <defs id="defs4">
  <radialGradient id="radialGradient4146" gradientUnits="userSpaceOnUse" cy="451.09" cx="216.51" gradientTransform="matrix(.49091 0 0 .49091 -82.286 806.92)" r="48.889">
   <stop id="stop4142" stop-color="#2196f3" stop-opacity="0" offset="0"/>
   <stop id="stop4144" stop-color="#2196f3" stop-opacity=".75" offset="1"/>
  </radialGradient>
  <radialGradient id="radialGradient4244" gradientUnits="userSpaceOnUse" cy="451.09" cx="216.51" gradientTransform="matrix(.49091 0 0 .49091 -34.286 806.92)" r="48.889">
   <stop id="stop4248" stop-color="#69f0ae" stop-opacity="0" offset="0"/>
   <stop id="stop4250" stop-color="#69f0ae" stop-opacity=".75" offset="1"/>
  </radialGradient>
 </defs>
 <g id="layer1" transform="translate(0 -1004.4)">
  <g id="g4169" fill-rule="evenodd">
   <circle id="path4138" opacity=".5" cy="1028.4" cx="24" r="24" fill="url(#radialGradient4146)"/>
   <g id="g4319">
    <g id="g4163" transform="matrix(-.86603 .5 -.5 -.86603 565.16 1934.5)">
     <path id="path4165" opacity=".5" d="m6 1052.4v-12l30 6z" fill="#90caf9"/>
     <circle id="circle4167" cy="1046.4" cx="6" r="6" fill="#2196f3"/>
    </g>
    <g id="g4218" transform="matrix(-.25882 .96593 -.96593 -.25882 1030.8 1282.4)">
     <path id="path4220" opacity=".5" d="m6 1052.4v-12l30 6z" fill="#90caf9"/>
     <circle id="circle4222" cx="6" cy="1046.4" r="6" fill="#2196f3"/>
    </g>
   </g>
  </g>
  <g id="g4305">
   <circle id="circle4226" opacity=".5" fill-rule="evenodd" cx="72" cy="1028.4" r="24" fill="url(#radialGradient4244)"/>
   <g id="g4293">
    <g id="g4228" transform="matrix(.38268 .92388 -.92388 .38268 1014.2 627.35)">
     <g id="g4230" fill-rule="evenodd" transform="matrix(0 1 -1 0 1067.9 1007)">
      <path id="path4232" opacity=".5" d="m6 1052.4v-12l30 6z" fill="#69f0ae"/>
      <circle id="circle4234" cy="1046.4" cx="6" r="6" fill="#00e676"/>
     </g>
    </g>
    <g id="g4238" fill-rule="evenodd" transform="matrix(-.13053 .99144 -.99144 -.13053 1100.9 1147.2)">
     <path id="path4240" opacity=".5" d="m6 1052.4v-12l30 6z" fill="#69f0ae"/>
     <circle id="circle4242" cy="1046.4" cx="6" r="6" fill="#00e676"/>
    </g>
    <g id="g4262" fill-rule="evenodd" transform="matrix(-.60876 .79335 -.79335 -.60876 910.85 1654.8)">
     <path id="path4264" opacity=".5" d="m6 1052.4v-12l30 6z" fill="#69f0ae"/>
     <circle id="circle4266" cx="6" cy="1046.4" r="6" fill="#00e676"/>
    </g>
   </g>
  </g>
 </g>
</svg>
