<svg xmlns:rdf="http://www.w3.org/1999/02/22-rdf-syntax-ns#" xmlns="http://www.w3.org/2000/svg" height="48" width="144" version="1.1" xmlns:cc="http://creativecommons.org/ns#" xmlns:dc="http://purl.org/dc/elements/1.1/" viewBox="0 0 143.99999 48.000032">
	<circle fill-rule="evenodd" transform="rotate(150)" cy="-39.99" cx="-19.462" r="6" fill="#2196f3"/>
	<g>
		<circle opacity=".5" fill-rule="evenodd" cy="24" cx="72" r="24" fill="#39ff9f"/>
		<g fill-rule="evenodd">
			<path opacity=".5" d="m84.219 24.978 4.5922 11.087-30.012 5.9372z" fill="#8ef3c1"/>
			<circle cy="30.521" cx="86.515" r="6" fill="#00e676"/>
		</g>
		<path opacity=".5" d="m74.371 8.566 12.694 9.74-28.262 23.691z" fill="#8ef3c1"/>
		<path d="m72.991 15.507a8 8 0 0 1 5.6569 -9.798 8 8 0 0 1 9.798 5.6569 8 8 0 0 1 -5.6569 9.798 8 8 0 0 1 -9.798 -5.6569z" fill-rule="evenodd" fill="#00e676"/>
		<g fill-rule="evenodd">
			<path opacity=".5" d="m56.77 11.474 11.897 1.5664-9.8645 28.96z" fill="#8ef3c1"/>
			<circle cy="12.257" cx="62.719" r="6" fill="#00e676"/>
		</g>
	</g>
	<g fill-rule="evenodd">
		<circle opacity=".5" cx="24" fill-opacity=".75" cy="24" r="24" fill="#4caaf5"/>
		<g>
			<path opacity=".5" d="m16.806 9.8869 11.086 4.5921-17.024 25.42z" fill="#90caf9"/>
			<circle cy="12.183" cx="22.349" r="6" fill="#2196f3"/>
			<path opacity=".5" d="m33.849 19.705 6 10.393-28.98 9.804z" fill="#90caf9"/>
			<circle cy="24.902" cx="36.849" r="6" fill="#2196f3"/>
		</g>
	</g>
	<g>
		<circle opacity=".5" fill-rule="evenodd" cx="120" cy="24" r="24" fill="#ff5722"/>
		<path opacity=".5" d="m123.07 9.6153 11.314 11.314-31.113 19.799z" fill="#ffccbc"/>
		<circle fill-rule="evenodd" cy="15.272" cx="128.73" r="8" fill="#ff5722"/>
	</g>
</svg>
