<svg height="70" width="500">
<path fill="#29b6f6" d="m55.762 12.286q0 2.1714-0.74334 4.1714-0.68614 1.9428-1.9441 3.5429 1.2579 1.6 1.9441 3.6 0.74334 1.9429 0.74334 4.1143v12.286h-9.2058v-12.286q0-1.3143-0.91487-2.1714-0.85769-0.91429-2.1728-0.91429h-9.263v15.371h-9.2058v-40h9.2058 9.263q2.573 0 4.803 0.97144 2.23 0.97141 3.8882 2.6286 1.6582 1.6571 2.6302 3.8857 0.97205 2.2286 0.97205 4.8zm-12.293 3.0857q1.3151 0 2.1728-0.85715 0.91487-0.91427 0.91487-2.2286 0-1.2572-0.91487-2.1143-0.85769-0.91429-2.1728-0.91429h-9.263v6.1143h9.263z"/>
<path fill="#29b6f6" d="m70.238 9.2571q-1.3151 0-2.23 0.91429-0.85769 0.85715-0.85769 2.1143v3.0857h21.556v9.2571h-21.556v3.0857q0 1.2571 0.85769 2.1714 0.91485 0.91429 2.23 0.91429h18.469v9.2h-18.469q-2.573 0-4.803-0.97143-2.23-0.97142-3.8882-2.6286-1.6582-1.6571-2.6302-3.8857-0.97203-2.2286-0.97203-4.8v-15.429q0-2.5714 0.97203-4.8 0.97205-2.2286 2.6302-3.8857 1.6582-1.6572 3.8882-2.6286 2.23-0.972 4.803-0.972h18.469v9.2571h-18.469z"/>
<path fill="#29b6f6" d="m109.47 0.0000025879q2.573 0 4.803 0.97144 2.23 0.97141 3.8882 2.6286 1.6582 1.6571 2.6302 3.8857 0.97205 2.2286 0.97205 4.8t-0.97205 4.8q-0.97204 2.2286-2.6302 3.9429-1.6582 1.6572-3.8882 2.6286-2.23 0.97143-4.803 0.97143h-9.263v15.371h-9.2058v-40h9.2058 9.263zm0 15.371q1.3151 0 2.1728-0.85715 0.91484-0.91427 0.91484-2.2286 0-1.2572-0.91484-2.1143-0.8577-0.91429-2.1728-0.91429h-9.263v6.1143h9.263z"/>
<path fill="#29b6f6" d="m136.24 9.2571q-1.3151 0-2.23 0.91429-0.85769 0.85715-0.85769 2.1143v3.0857h21.556v9.2571h-21.556v3.0857q0 1.2571 0.85769 2.1714 0.91485 0.91429 2.23 0.91429h18.469v9.2h-18.469q-2.5731 0-4.803-0.97143-2.23-0.97142-3.8882-2.6286-1.6582-1.6571-2.6302-3.8857-0.97202-2.2286-0.97202-4.8v-15.429q0-2.5714 0.97202-4.8 0.97205-2.2286 2.6302-3.8857 1.6582-1.6572 3.8882-2.6286 2.23-0.972 4.8-0.972h18.469v9.2571h-18.469z"/>
<path fill="#29b6f6" d="m178.56 30.8v9.2h-9.263q-2.5731 0-4.803-0.97143-2.23-0.97142-3.8882-2.6286-1.6582-1.6571-2.6302-3.8857-0.97204-2.2286-0.97204-4.8v-27.714h9.263v27.714q0 1.2571 0.85767 2.1714 0.91487 0.91429 2.1728 0.91429h9.263z"/>
<path fill="#29b6f6" d="m202.46 30.8v9.2h-9.263q-2.5731 0-4.803-0.97143-2.23-0.97142-3.8882-2.6286-1.6582-1.6571-2.6302-3.8857-0.97204-2.2286-0.97204-4.8v-27.714h9.263v27.714q0 1.2571 0.85767 2.1714 0.91487 0.91429 2.1728 0.91429h9.263z"/>
<path fill="#29b6f6" d="m204.8 0.0000025879h9.2058v40h-9.2058v-40z"/>
<path fill="#29b6f6" d="m246.95 27.714q0 2.5714-0.97203 4.8-0.97205 2.2286-2.6302 3.8857-1.6582 1.6572-3.8882 2.6286-2.23 0.97143-4.803 0.97143h-6.1753q-2.573 0-4.803-0.97143-2.23-0.97142-3.8882-2.6286-1.6582-1.6571-2.6302-3.8857-0.97205-2.2286-0.97205-4.8v-27.714h9.2058v27.714q0 1.2571 0.85769 2.1714 0.91486 0.91429 2.23 0.91429h6.1753q1.3151 0 2.1728-0.91429 0.91487-0.91427 0.91487-2.1714v-27.714h9.2058v27.714z"/>
<path fill="#29b6f6" d="m276.87 0.0000025879q2.5731 0 4.803 0.97144 2.23 0.97141 3.8882 2.6286 1.6582 1.6571 2.6302 3.8857 0.97204 2.2286 0.97204 4.8v27.714h-9.2058v-27.714q0-1.2572-0.91487-2.1143-0.85769-0.91429-2.1728-0.91429t-2.23 0.91429q-0.85769 0.85715-0.85769 2.1143v27.714h-9.2058v-27.714q0-1.2572-0.91487-2.1143-0.85769-0.91429-2.1728-0.91429t-2.23 0.91429q-0.85769 0.85715-0.85769 2.1143v27.714h-9.263v-27.714q0-2.5714 0.97205-4.8 0.97203-2.2286 2.6302-3.8857 1.7154-1.6572 3.9454-2.6286 2.24-0.972 4.82-0.972 2.1728 0 4.1169 0.74287 2.0012 0.6857 3.5451 1.9429 1.601-1.2572 3.5451-1.9429 2-0.7429 4.17-0.7429z"/>
<path fill="#29b6f6" d="m321.32 15.371h12.293v9.2571 3.0857q0 2.5714-0.97205 4.8-0.97203 2.2286-2.6302 3.8857-1.6582 1.6572-3.8882 2.6286-2.23 0.97143-4.803 0.97143h-6.1753q-2.573 0-4.803-0.97143-2.23-0.97142-3.8882-2.6286-1.6582-1.6571-2.6302-3.8857-0.97205-2.2286-0.97205-4.8v-15.429q0-2.5714 0.97205-4.8t2.6302-3.8857q1.6582-1.6572 3.8882-2.6286 2.23-0.97 4.81-0.97h6.1753q2.573 0 4.803 0.97144 2.23 0.97141 3.8882 2.6286 1.6582 1.6571 2.6302 3.8857 0.97205 2.2286 0.97205 4.8h-9.2058q0-1.2572-0.91486-2.1143-0.85768-0.91429-2.1728-0.91429h-6.1753q-1.3151 0-2.23 0.91429-0.85769 0.85715-0.85769 2.1143v15.429q0 1.2571 0.85769 2.1714 0.91487 0.91429 2.23 0.91429h6.1753q1.3151 0 2.1728-0.91429 0.91486-0.91427 0.91486-2.1714v-3.0857h-3.0877v-9.2571z"/>
<path fill="#29b6f6" d="m357.47 40-6.1753-22.971-6.1753 22.971h-9.2058l10.692-40h0.11443 9.1486 0.11443l10.71 40h-9.2058z"/>
<path fill="#29b6f6" d="m396.7 0.0000025879q2.573 0 4.803 0.97144 2.23 0.97141 3.8882 2.6286 1.6582 1.6571 2.6302 3.8857 0.97205 2.2286 0.97205 4.8v27.714h-9.2058v-27.714q0-1.2572-0.91484-2.1143-0.85769-0.91429-2.1728-0.91429t-2.23 0.91429q-0.85767 0.85715-0.85767 2.1143v27.714h-9.2058v-27.714q0-1.2572-0.91485-2.1143-0.85769-0.91429-2.1728-0.91429t-2.23 0.91429q-0.85767 0.85715-0.85767 2.1143v27.714h-9.263v-27.714q0-2.5714 0.97205-4.8 0.97204-2.2286 2.6302-3.8857 1.7154-1.6572 3.9453-2.6286 2.23-0.97144 4.803-0.97144 2.1728 0 4.1169 0.74287 2.0013 0.6857 3.5451 1.9429 1.601-1.2572 3.5451-1.9429 2.02-0.744 4.19-0.744z"/>
<path fill="#29b6f6" d="m423.47 9.2571q-1.3151 0-2.23 0.91429-0.85767 0.85715-0.85767 2.1143v3.0857h21.556v9.2571h-21.556v3.0857q0 1.2571 0.85767 2.1714 0.91487 0.91429 2.23 0.91429h18.469v9.2h-18.469q-2.573 0-4.803-0.97143-2.23-0.97142-3.8882-2.6286-1.6582-1.6571-2.6302-3.8857-0.97203-2.2286-0.97203-4.8v-15.429q0-2.5714 0.97203-4.8 0.97204-2.2286 2.6302-3.8857 1.6582-1.6572 3.8882-2.6286 2.23-0.972 4.8-0.972h18.469v9.2571h-18.469z"/>
<path fill="#29b6f6" d="m462.71 15.371q2.573 0 4.803 0.97144 2.23 0.97141 3.8882 2.6857 1.6582 1.6571 2.6302 3.8857 0.97205 2.2286 0.97205 4.8t-0.97205 4.8-2.6302 3.8857q-1.6582 1.6572-3.8882 2.6286-2.23 0.97143-4.803 0.97143h-18.469v-9.2h18.469q1.3151-0.0572 2.1728-0.91429 0.91487-0.91427 0.91487-2.1714 0-1.3143-0.91487-2.1714-0.85769-0.91429-2.1728-0.91429h-6.1753q-2.573 0-4.803-0.97143-2.23-0.97142-3.8882-2.6286-1.6582-1.7143-2.6302-3.9429-0.97203-2.2286-0.97203-4.8t0.97203-4.8q0.97204-2.2286 2.6302-3.8857 1.6582-1.6572 3.8882-2.6286 2.23-0.971 4.8-0.971h12.293v9.2571h-12.293q-1.3151 0-2.23 0.91429-0.85769 0.85715-0.85769 2.1143 0 1.3143 0.85769 2.2286 0.91485 0.85715 2.23 0.85715h6.1753z"/>
<path fill="#29b6f6" d="m0 50h500l-20 20h-460z" fill-rule="evenodd"/>
</svg>