<svg xmlns:rdf="http://www.w3.org/1999/02/22-rdf-syntax-ns#" xmlns="http://www.w3.org/2000/svg" height="25" width="120" version="1.1" xmlns:cc="http://creativecommons.org/ns#" xmlns:dc="http://purl.org/dc/elements/1.1/" viewBox="0 0 120.00001 25.00001">
	<defs>
		<style>.cls-1{fill:none;}.cls-2{fill:#1da1f2;}</style>
		<style>.cls-1{fill:none;}.cls-2{fill:#1da1f2;}</style>
	</defs>
	<path d="m7.6556 24.929c-2.1993-0.206-4.2669-0.773-6.2016-1.699l-1.0047-0.48126 1.2558-0.0895c1.9542-0.13928 3.4043-0.535 5.1488-1.405 1.4834-0.7398 2.0946-1.1897 2.048-1.5074-0.0325-0.223-0.1784-0.288-0.9218-0.413-1.1631-0.195-2.1563-0.679-3.0316-1.477-0.6037-0.551-1.674-1.963-1.6734-2.208 0.0001-0.0411 0.444-0.0825 0.98644-0.0919 1.5984-0.028 2.0324-0.5 0.8327-0.905-0.9618-0.324-1.6865-0.799-2.464-1.615-0.9485-0.994-1.4729-2.052-1.6793-3.3883l-0.08124-0.5253 0.65314 0.2482c0.3593 0.1365 0.9408 0.2599 1.2923 0.2741 0.8726 0.0354 0.9098-0.2259 0.1336-0.9379-1.273-1.1674-1.9581-2.7342-1.9673-4.4989-0.00497-0.9904 0.2292-2.1752 0.5176-2.6176 0.0824-0.1264 0.39212 0.10986 1.2347 0.94187 2.049 2.0232 4.4774 3.502 7.2658 4.4243 2.2157 0.73292 4.9294 1.1349 4.9708 0.73631 0.009-0.0863 0.004-0.62284-0.0127-1.1922-0.0522-1.8617 0.44257-3.2021 1.6639-4.5077 1.103-1.1791 2.0338-1.6678 3.6766-1.9302 1.5906-0.25411 3.4118 0.26382 4.7929 1.363 0.36058 0.28698 0.78794 0.52179 0.94969 0.52179 0.33884 0 2.2326-0.62111 2.8202-0.92495 0.21833-0.11291 0.42918-0.20528 0.46855-0.20528 0.23456 0-0.6003 1.1947-1.3317 1.9056-1.0719 1.042-1.1222 1.3007-0.22967 1.1823 0.34794-0.0462 0.98128-0.19243 1.4074-0.32506 0.42613-0.13262 0.80243-0.21348 0.83623-0.17969 0.0338 0.0339-0.53536 0.63976-1.2648 1.3466l-1.3262 1.2851-0.0878 1.3798c-0.27203 4.2748-1.4867 7.6057-3.9567 10.85-1.5058 1.9782-4.1188 4.084-6.3023 5.079-2.8031 1.2774-6.3463 1.8743-9.4183 1.5867z" fill="#1ca0f1"/>
	<path fill="#fff" d="m32.949 6.8885h2.533q2.449 0 3.6392 0.61036 1.1902 0.60272 1.9608 1.9684 0.77057 1.3657 0.77057 3.1891 0 1.297-0.43488 2.388-0.42725 1.0834-1.1902 1.8005-0.75531 0.71717-1.6403 0.99182-0.88501 0.27466-3.067 0.27466h-2.5711v-11.223zm2.1286 2.0599v7.0724h0.99183q1.4648 0 2.121-0.33569 0.66375-0.3357 1.0834-1.1292 0.41962-0.79346 0.41962-1.9531 0-1.7853-0.99945-2.7695-0.90027-0.88501-2.8915-0.88501h-0.7248z"/>
	<path fill="#fff" d="m43.447 6.6062h2.0828v11.505h-2.0828v-11.505z"/>
	<path fill="#fff" d="m55.738 14.564h-6.691q0.14495 0.88501 0.77056 1.4114 0.63324 0.5188 1.6098 0.5188 1.1673 0 2.0065-0.81634l1.7548 0.82397q-0.65613 0.93079-1.5717 1.3809-0.91552 0.44251-2.1744 0.44251-1.9531 0-3.1815-1.2283-1.2283-1.236-1.2283-3.0899 0-1.8997 1.2207-3.1509 1.2283-1.2588 3.0746-1.2588 1.9608 0 3.1891 1.2588 1.2283 1.2512 1.2283 3.3112l-0.008 0.39672zm-2.0904-1.6403q-0.20599-0.69427-0.81635-1.1292-0.60272-0.43487-1.4038-0.43487-0.86975 0-1.5259 0.48828-0.41199 0.30518-0.76294 1.0757h4.509z"/>
	<path fill="#fff" d="m63.566 9.8106h2.0752v8.3008h-2.0752v-0.87738q-0.61035 0.57984-1.2283 0.83924-0.61035 0.25177-1.3275 0.25177-1.6098 0-2.7847-1.2436-1.1749-1.2512-1.1749-3.1052 0-1.9226 1.1368-3.1509t2.7618-1.2283q0.74768 0 1.4038 0.28229 0.65613 0.28228 1.2131 0.84686v-0.91553zm-2.1896 1.709q-0.96894 0-1.6098 0.68664-0.64086 0.67902-0.64086 1.7471 0 1.0758 0.64849 1.77 0.65613 0.69428 1.6098 0.69428 0.98419 0 1.6327-0.67902 0.6485-0.68664 0.6485-1.7929 0-1.0834-0.6485-1.7548-0.6485-0.67138-1.6403-0.67138z"/>
	<path fill="#fff" d="m67.747 9.8106h2.0752v0.84686q0.70953-0.59509 1.2817-0.82397 0.57984-0.23651 1.1826-0.23651 1.236 0 2.0981 0.86212 0.7248 0.73242 0.7248 2.1668v5.4855h-2.0599v-3.6392q0-1.4877-0.13733-1.976-0.1297-0.48828-0.46539-0.74005-0.32807-0.2594-0.81635-0.2594-0.63324 0-1.091 0.42724-0.45013 0.41962-0.62561 1.1673-0.0915 0.3891-0.0915 1.6861v3.334h-2.0752v-8.3008z"/>
	<path fill="#fff" d="m80.137 6.8885h2.1439v7.4463q0 1.7776-0.28229 2.4948-0.28229 0.71717-0.93079 1.1444-0.64849 0.41962-1.5564 0.41962-1.854 0-3.1586-1.6251l1.5411-1.442q0.51117 0.57984 0.86975 0.7782 0.35858 0.19837 0.69427 0.19837 0.34332 0 0.51117-0.28992t0.16785-1.2741v-7.8506z"/>
	<path fill="#fff" d="m92.939 14.564h-6.691q0.14495 0.88501 0.77056 1.4114 0.63324 0.5188 1.6098 0.5188 1.1673 0 2.0065-0.81634l1.7548 0.82397q-0.65613 0.93079-1.5717 1.3809-0.91552 0.44251-2.1744 0.44251-1.9531 0-3.1815-1.2283-1.2283-1.236-1.2283-3.0899 0-1.8997 1.2207-3.1509 1.2283-1.2588 3.0746-1.2588 1.9608 0 3.1891 1.2588 1.2283 1.2512 1.2283 3.3112l-0.008 0.39672zm-2.0904-1.6403q-0.20599-0.69427-0.81634-1.1292-0.60273-0.43487-1.4038-0.43487-0.86975 0-1.5259 0.48828-0.41199 0.30518-0.76294 1.0757h4.509z"/>
	<path fill="#fff" d="m100.77 9.8106h2.0752v8.3008h-2.0752v-0.87738q-0.61035 0.57984-1.2283 0.83924-0.61035 0.25177-1.3275 0.25177-1.6098 0-2.7847-1.2436-1.1749-1.2512-1.1749-3.1052 0-1.9226 1.1368-3.1509t2.7618-1.2283q0.74768 0 1.4038 0.28229 0.65613 0.28228 1.2131 0.84686v-0.91553zm-2.1896 1.709q-0.96894 0-1.6098 0.68664-0.64086 0.67902-0.64086 1.7471 0 1.0758 0.64849 1.77 0.65613 0.69428 1.6098 0.69428 0.98419 0 1.6327-0.67902 0.6485-0.68664 0.6485-1.7929 0-1.0834-0.6485-1.7548-0.6485-0.67138-1.6403-0.67138z"/>
	<path fill="#fff" d="m104.95 9.8106h2.0752v0.84686q0.70953-0.59509 1.2817-0.82397 0.57983-0.23651 1.1826-0.23651 1.236 0 2.0981 0.86212 0.7248 0.73242 0.7248 2.1668v5.4855h-2.0599v-3.6392q0-1.4877-0.13733-1.976-0.1297-0.48828-0.46539-0.74005-0.32807-0.2594-0.81635-0.2594-0.63324 0-1.091 0.42724-0.45013 0.41962-0.62561 1.1673-0.0915 0.3891-0.0915 1.6861v3.334h-2.0752v-8.3008z"/>
	<path fill="#fff" d="m119.4 10.97-1.2894 1.2894q-0.78583-0.7782-1.4267-0.7782-0.35095 0-0.54932 0.15259-0.19836 0.14496-0.19836 0.36621 0 0.16784 0.12207 0.3128 0.1297 0.13733 0.62561 0.38147l0.76294 0.38147q1.2054 0.5951 1.6556 1.2131 0.45013 0.61798 0.45013 1.4496 0 1.1063-0.81634 1.8463-0.80872 0.74006-2.1744 0.74006-1.8158 0-2.8992-1.4191l1.2817-1.3962q0.36621 0.42725 0.85449 0.69427 0.49591 0.2594 0.87738 0.2594 0.41199 0 0.66376-0.19836t0.25177-0.45776q0-0.48066-0.9079-0.93842l-0.7019-0.35095q-2.0142-1.0147-2.0142-2.5406 0-0.98419 0.75531-1.6785 0.76294-0.7019 1.9455-0.7019 0.80872 0 1.5182 0.35858 0.71716 0.35095 1.2131 1.0147z"/>
</svg>
