<?xml version="1.0" encoding="UTF-8" standalone="no"?>
<svg
   xmlns:dc="http://purl.org/dc/elements/1.1/"
   xmlns:cc="http://creativecommons.org/ns#"
   xmlns:rdf="http://www.w3.org/1999/02/22-rdf-syntax-ns#"
   xmlns:svg="http://www.w3.org/2000/svg"
   xmlns="http://www.w3.org/2000/svg"
   xmlns:sodipodi="http://sodipodi.sourceforge.net/DTD/sodipodi-0.dtd"
   xmlns:inkscape="http://www.inkscape.org/namespaces/inkscape"
   id="svg"
   height="320"
   width="320"
   inkscape:version="0.91 r13725"
   sodipodi:docname="Icon-Inkscape.svg"
   inkscape:export-filename="C:\Users\Dlean\Desktop\Projects\RepelBall\assets\png\big-icon.png"
   inkscape:export-xdpi="101.25"
   inkscape:export-ydpi="101.25"
   version="1.1">
  <defs
     id="defs21" />
  <metadata
     id="metadata24">
    <rdf:RDF>
      <cc:Work
         rdf:about="">
        <dc:format>image/svg+xml</dc:format>
        <dc:type
           rdf:resource="http://purl.org/dc/dcmitype/StillImage" />
        <dc:title></dc:title>
      </cc:Work>
    </rdf:RDF>
  </metadata>
  <sodipodi:namedview
     pagecolor="#ffffff"
     bordercolor="#666666"
     borderopacity="1"
     objecttolerance="10"
     gridtolerance="10"
     guidetolerance="10"
     inkscape:pageopacity="0"
     inkscape:pageshadow="2"
     inkscape:window-width="1366"
     inkscape:window-height="705"
     id="namedview20"
     showgrid="false"
     inkscape:zoom="0.87407407"
     inkscape:cx="17.853105"
     inkscape:cy="82.13207"
     inkscape:window-x="-8"
     inkscape:window-y="-8"
     inkscape:window-maximized="1"
     inkscape:current-layer="svg"
     fit-margin-top="0"
     fit-margin-left="0"
     fit-margin-right="0"
     fit-margin-bottom="0" />
  <g
     id="g4190">
    <path
       id="background"
       d="M 64.000001,0 256,0 c 35.456,0 64,28.543983 64,64.000004 l 0,191.999966 C 320,291.45592 291.456,320 256,320 L 64.000001,320 C 28.544002,320 0,291.45592 0,255.99997 L 0,64.000004 C 0,28.543983 28.544002,0 64.000001,0 Z"
       inkscape:connector-curvature="0"
       style="fill:#212121;fill-rule:evenodd" />
    <g
       id="whole-paddle">
      <path
         style="fill:#2196f3"
         d="m 79.999802,200.0004 159.998418,0 c 11.07989,0 19.9998,8.91991 19.9998,19.9998 0,11.07989 -8.91991,19.9998 -19.9998,19.9998 L 79.999802,240 C 68.919912,240 60,231.08009 60,220.0002 c 0,-11.07989 8.919912,-19.9998 19.999802,-19.9998 z"
         id="paddle"
         inkscape:connector-curvature="0" />
      <g
         id="right-eye">
        <path
           inkscape:connector-curvature="0"
           id="right-white"
           d="m 223.99969,219.99975 a 15.999842,15.999842 0 0 0 15.99984,15.99984 15.999842,15.999842 0 0 0 15.99984,-15.99984 15.999842,15.999842 0 0 0 -15.99984,-15.99984 15.999842,15.999842 0 0 0 -15.99984,15.99984 z"
           style="fill:#ffffff" />
        <path
           style="fill:#212121"
           d="m 231.99961,213.99981 a 7.9999208,7.9999208 0 0 0 7.99992,7.99992 7.9999208,7.9999208 0 0 0 7.99992,-7.99992 7.9999208,7.9999208 0 0 0 -7.99992,-7.99992 7.9999208,7.9999208 0 0 0 -7.99992,7.99992 z"
           id="right-pupil"
           inkscape:connector-curvature="0" />
      </g>
      <g
         id="g4171">
        <path
           style="fill:#b71c1c"
           inkscape:connector-curvature="0"
           d="m 179.99881,215.88012 a 19.999802,19.999802 0 0 1 -9.9999,17.32033 19.999802,19.999802 0 0 1 -19.9998,0 19.999802,19.999802 0 0 1 -9.9999,-17.32033 l 19.9998,0 z"
           id="mouth-shape" />
        <path
           style="fill:#f44336"
           d="m 160.23534,225.88253 a 9.9999048,9.9999048 0 0 0 -5.23628,1.33788 9.9999048,9.9999048 0 0 0 -4.67768,6.15619 19.999802,19.999802 0 0 0 19.34355,-0.005 9.9999048,9.9999048 0 0 0 -4.66597,-6.15034 9.9999048,9.9999048 0 0 0 -4.76362,-1.33786 z"
           id="tongue"
           inkscape:connector-curvature="0" />
      </g>
      <g
         id="left-eye">
        <path
           inkscape:connector-curvature="0"
           id="left-white"
           d="m 87.999758,233.85647 a 15.999842,15.999842 0 0 1 -21.856188,-5.85635 15.999842,15.999842 0 0 1 5.856348,-21.85619 15.999842,15.999842 0 0 1 21.856188,5.85635 15.999842,15.999842 0 0 1 -5.856348,21.85619 z"
           style="fill:#ffffff" />
        <path
           inkscape:connector-curvature="0"
           d="m 89.195898,223.80827 a 7.9999208,7.9999208 0 0 1 -10.928094,-2.92818 7.9999208,7.9999208 0 0 1 2.928174,-10.92809 7.9999208,7.9999208 0 0 1 10.928094,2.92817 7.9999208,7.9999208 0 0 1 -2.928174,10.9281 z"
           style="fill:#212121"
           id="left-pupil" />
      </g>
    </g>
    <g
       id="g4165">
      <path
         sodipodi:nodetypes="ccccccc"
         inkscape:connector-curvature="0"
         id="ball-trail"
         d="M 3.9999603,44.00153 150.14059,200 l 19.85772,0 84.20091,-65.9751 -28.28516,-28.28126 -65.91565,74.25655 z"
         style="color:#000000;font-style:normal;font-variant:normal;font-weight:normal;font-stretch:normal;font-size:medium;line-height:normal;font-family:sans-serif;text-indent:0;text-align:start;text-decoration:none;text-decoration-line:none;text-decoration-style:solid;text-decoration-color:#000000;letter-spacing:normal;word-spacing:normal;text-transform:none;direction:ltr;block-progression:tb;writing-mode:lr-tb;baseline-shift:baseline;text-anchor:start;white-space:normal;clip-rule:nonzero;display:inline;overflow:visible;visibility:visible;opacity:0.75;isolation:auto;mix-blend-mode:normal;color-interpolation:sRGB;color-interpolation-filters:linearRGB;solid-color:#000000;solid-opacity:1;fill:#b3e5fc;fill-opacity:1;fill-rule:evenodd;stroke:none;stroke-width:19.99980164;stroke-linecap:butt;stroke-linejoin:bevel;stroke-miterlimit:4;stroke-dasharray:none;stroke-dashoffset:0;stroke-opacity:1;color-rendering:auto;image-rendering:auto;shape-rendering:auto;text-rendering:auto;enable-background:accumulate" />
      <path
         style="fill:#2196f3"
         inkscape:connector-curvature="0"
         d="m 219.99782,120.0008 c 0,11.04538 8.95442,19.9998 19.9998,19.9998 11.0444,0 19.99981,-8.95442 19.99981,-19.9998 0,-11.0444 -8.95541,-19.9998 -19.99981,-19.9998 -11.04538,0 -19.9998,8.9554 -19.9998,19.9998"
         id="ball" />
    </g>
  </g>
</svg>
