<?xml version="1.0" encoding="UTF-8" standalone="no"?>
<svg
   xmlns:dc="http://purl.org/dc/elements/1.1/"
   xmlns:cc="http://creativecommons.org/ns#"
   xmlns:rdf="http://www.w3.org/1999/02/22-rdf-syntax-ns#"
   xmlns:svg="http://www.w3.org/2000/svg"
   xmlns="http://www.w3.org/2000/svg"
   xmlns:sodipodi="http://sodipodi.sourceforge.net/DTD/sodipodi-0.dtd"
   xmlns:inkscape="http://www.inkscape.org/namespaces/inkscape"
   id="svg2"
   height="120"
   viewBox="0 0 119.99881 119.99881"
   width="120"
   version="1.1"
   inkscape:version="0.91 r13725"
   sodipodi:docname="Icon-Inkscape.svg"
   inkscape:export-filename="C:\Users\Dlean\Desktop\Projects\RepelBall\assets\png\icon.png"
   inkscape:export-xdpi="192"
   inkscape:export-ydpi="192">
  <metadata
     id="metadata24">
    <rdf:RDF>
      <cc:Work
         rdf:about="">
        <dc:format>image/svg+xml</dc:format>
        <dc:type
           rdf:resource="http://purl.org/dc/dcmitype/StillImage" />
        <dc:title></dc:title>
      </cc:Work>
    </rdf:RDF>
  </metadata>
  <defs
     id="defs22" />
  <sodipodi:namedview
     pagecolor="#ffffff"
     bordercolor="#666666"
     borderopacity="1"
     objecttolerance="10"
     gridtolerance="10"
     guidetolerance="10"
     inkscape:pageopacity="0"
     inkscape:pageshadow="2"
     inkscape:window-width="1366"
     inkscape:window-height="705"
     id="namedview20"
     showgrid="false"
     inkscape:zoom="4.425"
     inkscape:cx="26.440678"
     inkscape:cy="30.320151"
     inkscape:window-x="-8"
     inkscape:window-y="-8"
     inkscape:window-maximized="1"
     inkscape:current-layer="layer1" />
  <g
     id="layer1"
     transform="translate(0 -932.36)">
    <path
       id="rect4152"
       d="m24 932.36h72c13.296 0 24 10.704 24 24v72c0 13.296-10.704 24-24 24h-72c-13.296 0-24-10.704-24-24v-72c0-13.296 10.704-24 24-24z"
       fill-rule="evenodd"
       fill="#212121" />
    <rect
       id="rect4138"
       rx="8"
       ry="16"
       height="16"
       width="80"
       y="1010.4"
       x="20"
       fill="#2196f3" />
    <path
       id="rect4428"
       opacity=".75"
       d="m19.584 0.4082c-5.556 1.0256-10.427 3.9493-13.922 8.082l49.512 69.508h18.476l17.987-31.152-13.858-8-13.367 23.152-44.828-61.59z"
       transform="translate(0,932.36)"
       stroke-width="0"
       fill="#e3f2fd" />
    <g
       id="g4156"
       transform="matrix(.75 0 0 .75 22 235.09)">
      <circle
         id="path4140"
         cy="1044.4"
         cx="8"
         r="8"
         fill="#fff" />
      <circle
         id="circle4144"
         cy="1042.4"
         cx="10"
         r="4"
         fill="#212121" />
    </g>
    <g
       id="g4160"
       transform="matrix(-.75 0 0 .75 98 235.09)">
      <path
         style="fill:#ffffff"
         d="m 16,1044.4 a 8,8 0 0 1 -8,8 8,8 0 0 1 -8,-8 8,8 0 0 1 8,-8 8,8 0 0 1 8,8 z"
         id="circle4162" />
      <circle
         id="circle4164"
         cy="1041.4"
         cx="8.0952"
         r="4"
         fill="#212121" />
    </g>
    <g
       id="g4476"
       transform="translate(0,24.801)">
      <path
         id="path4469"
         fill="#b71c1c"
         d="m68 989.56a8 8 0 0 1 -4 6.9282 8 8 0 0 1 -8 0 8 8 0 0 1 -4 -6.9282h8z" />
      <path
         id="path4471"
         d="m60.055 61.201a4 4 0 0 0 -1.9062 0.5332 4 4 0 0 0 -1.8672 2.4648 8 8 0 0 0 7.7383 -0.0059 4 4 0 0 0 -1.8711 -2.459 4 4 0 0 0 -2.0938 -0.5332z"
         transform="translate(0,932.36)"
         fill="#f44336" />
    </g>
    <g
       id="g4494"
       transform="matrix(.75 0 0 .75 22 235.09)">
      <path
         style="fill:#ffffff"
         d="m 16,1044.4 a 8,8 0 0 1 -8,8 8,8 0 0 1 -8,-8 8,8 0 0 1 8,-8 8,8 0 0 1 8,8 z"
         id="circle4496" />
      <path
         style="fill:#212121"
         d="m 14,1041.9 a 4,4 0 0 1 -4,4 4,4 0 0 1 -4,-4 4,4 0 0 1 4,-4 4,4 0 0 1 4,4 z"
         id="circle4498" />
    </g>
    <path
       id="path22"
       fill="#2196f3"
       d="m76 976.36c0 4.4182 3.5818 8 8 8 4.4178 0 8-3.5818 8-8 0-4.4178-3.5822-8-8-8-4.4182 0-8 3.5822-8 8" />
  </g>
</svg>
