<?xml version="1.0" encoding="UTF-8" standalone="no"?>
<svg
   xmlns:dc="http://purl.org/dc/elements/1.1/"
   xmlns:cc="http://creativecommons.org/ns#"
   xmlns:rdf="http://www.w3.org/1999/02/22-rdf-syntax-ns#"
   xmlns:svg="http://www.w3.org/2000/svg"
   xmlns="http://www.w3.org/2000/svg"
   xmlns:sodipodi="http://sodipodi.sourceforge.net/DTD/sodipodi-0.dtd"
   xmlns:inkscape="http://www.inkscape.org/namespaces/inkscape"
   id="svg2"
   height="120"
   width="120"
   version="1.1"
   viewBox="0 0 119.99881 119.99881"
   inkscape:version="0.91 r13725"
   sodipodi:docname="Icon-Inkscape.svg">
  <metadata
     id="metadata24">
    <rdf:RDF>
      <cc:Work
         rdf:about="">
        <dc:format>image/svg+xml</dc:format>
        <dc:type
           rdf:resource="http://purl.org/dc/dcmitype/StillImage" />
        <dc:title></dc:title>
      </cc:Work>
    </rdf:RDF>
  </metadata>
  <defs
     id="defs22" />
  <sodipodi:namedview
     pagecolor="#ffffff"
     bordercolor="#666666"
     borderopacity="1"
     objecttolerance="10"
     gridtolerance="10"
     guidetolerance="10"
     inkscape:pageopacity="0"
     inkscape:pageshadow="2"
     inkscape:window-width="1366"
     inkscape:window-height="705"
     id="namedview20"
     showgrid="false"
     units="px"
     inkscape:zoom="1.9666473"
     inkscape:cx="60.000592"
     inkscape:cy="59.492112"
     inkscape:window-x="-8"
     inkscape:window-y="-8"
     inkscape:window-maximized="1"
     inkscape:current-layer="layer1" />
  <g
     id="layer1"
     transform="translate(0,-932.36118)">
    <path
       style="opacity:1;fill:#212121;fill-opacity:1;fill-rule:evenodd;stroke:none;stroke-width:10;stroke-linecap:round;stroke-linejoin:miter;stroke-miterlimit:0;stroke-dasharray:none;stroke-dashoffset:0;stroke-opacity:1"
       d="m 24,932.35999 71.999809,0 c 13.296001,0 24.000001,10.704 24.000001,24 l 0,72.00001 c 0,13.296 -10.704,24 -24.000001,24 L 24,1052.36 c -13.296,0 -24,-10.704 -24,-24 l 0,-72.00001 c 0,-13.296 10.704,-24 24,-24 z"
       id="rect4152" />
    <rect
       id="rect4138"
       rx="8"
       ry="16"
       height="16"
       width="80"
       y="1010.4"
       x="20"
       style="fill:#2196f3" />
    <path
       id="rect4428"
       d="M 19.584,0.4082 C 14.028,1.4338 9.157,4.3575 5.662,8.4902 l 49.512,69.508 18.476,0 17.987,-31.152 -13.858,-8 -13.367,23.152 -44.828,-61.59 z"
       transform="translate(0,932.36)"
       inkscape:connector-curvature="0"
       style="opacity:0.75;fill:#e3f2fd;stroke-width:0" />
    <g
       id="g4156"
       transform="matrix(0.75,0,0,0.75,22,235.09)">
      <circle
         id="path4140"
         cy="1044.4"
         cx="8"
         r="8"
         style="fill:#ffffff" />
      <circle
         id="circle4144"
         cx="10"
         cy="1042.4"
         r="4"
         style="fill:#212121" />
    </g>
    <g
       id="g4160"
       transform="matrix(-0.75,0,0,0.75,98,235.09)">
      <circle
         id="circle4162"
         cx="8"
         cy="1044.4"
         r="8"
         style="fill:#ffffff" />
      <circle
         id="circle4164"
         cy="1041.4"
         cx="8.0951996"
         r="4"
         style="fill:#212121" />
    </g>
    <g
       id="g4476"
       transform="translate(0,24.801)">
      <path
         id="path4469"
         d="m 68,989.56 a 8,8 0 0 1 -4,6.9282 8,8 0 0 1 -8,0 8,8 0 0 1 -4,-6.9282 l 8,0 z"
         inkscape:connector-curvature="0"
         style="fill:#b71c1c" />
      <path
         id="path4471"
         d="m 60.055,61.201 a 4,4 0 0 0 -1.9062,0.5332 4,4 0 0 0 -1.8672,2.4648 8,8 0 0 0 7.7383,-0.0059 4,4 0 0 0 -1.8711,-2.459 4,4 0 0 0 -2.0938,-0.5332 z"
         transform="translate(0,932.36)"
         inkscape:connector-curvature="0"
         style="fill:#f44336" />
    </g>
    <g
       id="g4494"
       transform="matrix(0.75,0,0,0.75,22,235.09)">
      <circle
         id="circle4496"
         cx="8"
         cy="1044.4"
         r="8"
         style="fill:#ffffff" />
      <circle
         id="circle4498"
         cy="1041.9"
         cx="10"
         r="4"
         style="fill:#212121" />
    </g>
    <path
       id="path22"
       d="m 76,976.36 c 0,4.4182 3.5818,8 8,8 4.4178,0 8,-3.5818 8,-8 0,-4.4178 -3.5822,-8 -8,-8 -4.4182,0 -8,3.5822 -8,8"
       inkscape:connector-curvature="0"
       style="fill:#2196f3" />
  </g>
</svg>
