<?xml version="1.0" encoding="UTF-8" standalone="no"?>
<!-- Created with Inkscape (http://www.inkscape.org/) -->

<svg
   xmlns:dc="http://purl.org/dc/elements/1.1/"
   xmlns:cc="http://creativecommons.org/ns#"
   xmlns:rdf="http://www.w3.org/1999/02/22-rdf-syntax-ns#"
   xmlns:svg="http://www.w3.org/2000/svg"
   xmlns="http://www.w3.org/2000/svg"
   xmlns:sodipodi="http://sodipodi.sourceforge.net/DTD/sodipodi-0.dtd"
   xmlns:inkscape="http://www.inkscape.org/namespaces/inkscape"
   width="24"
   height="36"
   viewBox="0 0 24 36.000001"
   id="svg2"
   version="1.1"
   inkscape:version="0.91 r13725"
   sodipodi:docname="Mouths-Inkscape.svg"
   inkscape:export-filename="C:\Users\Dlean\Desktop\Projects\RepelBall\assets\png\Mouths.png"
   inkscape:export-xdpi="90"
   inkscape:export-ydpi="90">
  <defs
     id="defs4" />
  <sodipodi:namedview
     id="base"
     pagecolor="#ffffff"
     bordercolor="#666666"
     borderopacity="1.0"
     inkscape:pageopacity="0.0"
     inkscape:pageshadow="2"
     inkscape:zoom="5.980078"
     inkscape:cx="-12.416226"
     inkscape:cy="18.67311"
     inkscape:document-units="px"
     inkscape:current-layer="svg2"
     showgrid="false"
     units="px"
     inkscape:window-width="1366"
     inkscape:window-height="705"
     inkscape:window-x="-8"
     inkscape:window-y="-8"
     inkscape:window-maximized="1" />
  <metadata
     id="metadata7">
    <rdf:RDF>
      <cc:Work
         rdf:about="">
        <dc:format>image/svg+xml</dc:format>
        <dc:type
           rdf:resource="http://purl.org/dc/dcmitype/StillImage" />
        <dc:title></dc:title>
      </cc:Work>
    </rdf:RDF>
  </metadata>
  <g
     id="g4174">
    <path
       style="opacity:1;fill:#821414;fill-opacity:1;stroke:none;stroke-width:3;stroke-linecap:round;stroke-linejoin:miter;stroke-miterlimit:4;stroke-dasharray:none;stroke-opacity:1"
       d="M 24,-1.7382812e-5 A 12,12 0 0 1 18,10.392288 12,12 0 0 1 5.9999997,10.392287 12,12 0 0 1 0,-1.7939735e-5 l 12,5.56923e-7 z"
       id="path4136" />
    <path
       inkscape:connector-curvature="0"
       id="path4138"
       d="M 12.140625,6.0019531 A 5.9999995,5.9999995 0 0 0 9,6.8046875 5.9999995,5.9999995 0 0 0 6.1914062,10.498047 12,12 0 0 0 17.800781,10.494141 5.9999995,5.9999995 0 0 0 15,6.8046875 5.9999995,5.9999995 0 0 0 12.140625,6.0019531 Z"
       clip-path="none"
       style="opacity:1;fill:#d32f2f;fill-opacity:1;stroke:none;stroke-width:3;stroke-linecap:round;stroke-linejoin:miter;stroke-miterlimit:4;stroke-dasharray:none;stroke-opacity:1" />
  </g>
  <g
     id="g4168">
    <path
       style="opacity:1;fill:#821414;fill-opacity:1;stroke:none;stroke-width:3;stroke-linecap:round;stroke-linejoin:miter;stroke-miterlimit:4;stroke-dasharray:none;stroke-opacity:1"
       d="M 24,11.999983 A 12,12 0 0 1 18,22.392288 12,12 0 0 1 5.9999997,22.392287 12,12 0 0 1 0,11.999982 l 12,1e-6 z"
       id="path4152" />
    <path
       style="opacity:1;fill:#d32f2f;fill-opacity:1;stroke:none;stroke-width:3;stroke-linecap:round;stroke-linejoin:miter;stroke-miterlimit:4;stroke-dasharray:none;stroke-opacity:1"
       d="m 18,11.999983 a 5.9999995,5.9999995 0 0 1 -3,5.196152 5.9999995,5.9999995 0 0 1 -5.9999999,0 5.9999995,5.9999995 0 0 1 -2.9999996,-5.196152 l 5.9999995,0 z"
       id="path4158" />
  </g>
  <path
     style="opacity:1;fill:#821414;fill-opacity:1;stroke:none;stroke-width:3;stroke-linecap:round;stroke-linejoin:miter;stroke-miterlimit:4;stroke-dasharray:none;stroke-opacity:1"
     d="m 18,29.999983 a 6,6 0 0 1 -6,6 6,6 0 0 1 -6,-6 6,6 0 0 1 6,-6 6,6 0 0 1 6,6 z"
     id="path4160" />
</svg>
