<?xml version="1.0" encoding="UTF-8" standalone="no"?>
<!-- Created with Inkscape (http://www.inkscape.org/) -->

<svg
   xmlns:dc="http://purl.org/dc/elements/1.1/"
   xmlns:cc="http://creativecommons.org/ns#"
   xmlns:rdf="http://www.w3.org/1999/02/22-rdf-syntax-ns#"
   xmlns:svg="http://www.w3.org/2000/svg"
   xmlns="http://www.w3.org/2000/svg"
   xmlns:sodipodi="http://sodipodi.sourceforge.net/DTD/sodipodi-0.dtd"
   xmlns:inkscape="http://www.inkscape.org/namespaces/inkscape"
   width="250"
   height="35.00008"
   viewBox="0 0 250 35.00008"
   id="svg2"
   version="1.1"
   inkscape:version="0.91 r13725"
   sodipodi:docname="RepelliumGames_NoDroppedShadow.svg">
  <defs
     id="defs4" />
  <sodipodi:namedview
     id="base"
     pagecolor="#ffffff"
     bordercolor="#666666"
     borderopacity="1.0"
     inkscape:pageopacity="0.0"
     inkscape:pageshadow="2"
     inkscape:zoom="0.7875"
     inkscape:cx="122.13891"
     inkscape:cy="-70.291006"
     inkscape:document-units="px"
     inkscape:current-layer="g4174"
     showgrid="false"
     units="px"
     inkscape:window-width="1366"
     inkscape:window-height="705"
     inkscape:window-x="-8"
     inkscape:window-y="-8"
     inkscape:window-maximized="1"
     showguides="true"
     fit-margin-top="0"
     fit-margin-left="0"
     fit-margin-right="0"
     fit-margin-bottom="0" />
  <metadata
     id="metadata7">
    <rdf:RDF>
      <cc:Work
         rdf:about="">
        <dc:format>image/svg+xml</dc:format>
        <dc:type
           rdf:resource="http://purl.org/dc/dcmitype/StillImage" />
        <dc:title></dc:title>
      </cc:Work>
    </rdf:RDF>
  </metadata>
  <g
     inkscape:label="Layer 1"
     inkscape:groupmode="layer"
     id="layer1"
     transform="translate(557.38098,-681.8859)">
    <g
       id="g4174">
      <g
         transform="scale(1.0003156,0.99968449)"
         style="font-style:normal;font-weight:normal;font-size:28.58044624px;line-height:125%;font-family:sans-serif;letter-spacing:0px;word-spacing:0px;fill:#29b6f6;fill-opacity:1;stroke:none;stroke-width:1px;stroke-linecap:butt;stroke-linejoin:miter;stroke-opacity:1"
         id="text3333">
        <path
           d="m -529.33281,688.24591 q 0,1.08605 -0.37155,2.08637 -0.34296,0.97173 -0.97173,1.77199 0.62877,0.80025 0.97173,1.80056 0.37155,0.97174 0.37155,2.0578 l 0,6.14479 -4.60145,0 0,-6.14479 q 0,-0.65735 -0.45729,-1.08606 -0.42871,-0.45729 -1.08606,-0.45729 l -4.63003,0 0,7.68814 -4.60145,0 0,-20.00631 4.60145,0 4.63003,0 q 1.28612,0 2.40076,0.48587 1.11464,0.48586 1.94347,1.3147 0.82883,0.82883 1.3147,1.94347 0.48587,1.11464 0.48587,2.40076 z m -6.1448,1.54334 q 0.65735,0 1.08606,-0.42871 0.45729,-0.45728 0.45729,-1.11463 0,-0.62877 -0.45729,-1.05748 -0.42871,-0.45729 -1.08606,-0.45729 l -4.63003,0 0,3.05811 4.63003,0 z"
           style="font-style:normal;font-variant:normal;font-weight:normal;font-stretch:normal;font-size:28.58044624px;font-family:'RR Beaver';-inkscape-font-specification:'RR Beaver';fill:#29b6f6;fill-opacity:1"
           id="path4203"
           inkscape:connector-curvature="0" />
        <path
           d="m -522.09705,686.73114 q -0.65735,0 -1.11463,0.45729 -0.42871,0.42871 -0.42871,1.05748 l 0,1.54334 10.77483,0 0,4.63003 -10.77483,0 0,1.54335 q 0,0.62877 0.42871,1.08605 0.45728,0.45729 1.11463,0.45729 l 9.23149,0 0,4.60145 -9.23149,0 q -1.28612,0 -2.40075,-0.48587 -1.11464,-0.48586 -1.94347,-1.3147 -0.82884,-0.82883 -1.31471,-1.94347 -0.48586,-1.11463 -0.48586,-2.40075 l 0,-7.71672 q 0,-1.28612 0.48586,-2.40076 0.48587,-1.11464 1.31471,-1.94347 0.82883,-0.82884 1.94347,-1.3147 1.11463,-0.48587 2.40075,-0.48587 l 9.23149,0 0,4.63003 -9.23149,0 0,0 z"
           style="font-style:normal;font-variant:normal;font-weight:normal;font-stretch:normal;font-size:28.58044624px;font-family:'RR Beaver';-inkscape-font-specification:'RR Beaver';fill:#29b6f6;fill-opacity:1"
           id="path4205"
           inkscape:connector-curvature="0" />
        <path
           d="m -502.48729,682.10111 q 1.28612,0 2.40076,0.48587 1.11464,0.48586 1.94347,1.3147 0.82883,0.82883 1.3147,1.94347 0.48587,1.11464 0.48587,2.40076 0,1.28612 -0.48587,2.40075 -0.48587,1.11464 -1.3147,1.97205 -0.82883,0.82884 -1.94347,1.3147 -1.11464,0.48587 -2.40076,0.48587 l -4.63003,0 0,7.68814 -4.60145,0 0,-20.00631 4.60145,0 4.63003,0 z m 0,7.68814 q 0.65735,0 1.08606,-0.42871 0.45728,-0.45728 0.45728,-1.11463 0,-0.62877 -0.45728,-1.05748 -0.42871,-0.45729 -1.08606,-0.45729 l -4.63003,0 0,3.05811 4.63003,0 z"
           style="font-style:normal;font-variant:normal;font-weight:normal;font-stretch:normal;font-size:28.58044624px;font-family:'RR Beaver';-inkscape-font-specification:'RR Beaver';fill:#29b6f6;fill-opacity:1"
           id="path4207"
           inkscape:connector-curvature="0" />
        <path
           d="m -489.10673,686.73114 q -0.65735,0 -1.11463,0.45729 -0.42871,0.42871 -0.42871,1.05748 l 0,1.54334 10.77483,0 0,4.63003 -10.77483,0 0,1.54335 q 0,0.62877 0.42871,1.08605 0.45728,0.45729 1.11463,0.45729 l 9.23149,0 0,4.60145 -9.23149,0 q -1.28612,0 -2.40075,-0.48587 -1.11464,-0.48586 -1.94347,-1.3147 -0.82884,-0.82883 -1.31471,-1.94347 -0.48586,-1.11463 -0.48586,-2.40075 l 0,-7.71672 q 0,-1.28612 0.48586,-2.40076 0.48587,-1.11464 1.31471,-1.94347 0.82883,-0.82884 1.94347,-1.3147 1.11463,-0.48587 2.40075,-0.48587 l 9.23149,0 0,4.63003 -9.23149,0 0,0 z"
           style="font-style:normal;font-variant:normal;font-weight:normal;font-stretch:normal;font-size:28.58044624px;font-family:'RR Beaver';-inkscape-font-specification:'RR Beaver';fill:#29b6f6;fill-opacity:1"
           id="path4209"
           inkscape:connector-curvature="0" />
        <path
           d="m -467.95363,697.50597 0,4.60145 -4.63003,0 q -1.28612,0 -2.40076,-0.48587 -1.11463,-0.48586 -1.94347,-1.3147 -0.82883,-0.82883 -1.3147,-1.94347 -0.48587,-1.11463 -0.48587,-2.40075 l 0,-13.86152 4.63004,0 0,13.86152 q 0,0.62877 0.4287,1.08605 0.45729,0.45729 1.08606,0.45729 l 4.63003,0 z"
           style="font-style:normal;font-variant:normal;font-weight:normal;font-stretch:normal;font-size:28.58044624px;font-family:'RR Beaver';-inkscape-font-specification:'RR Beaver';fill:#29b6f6;fill-opacity:1"
           id="path4211"
           inkscape:connector-curvature="0" />
        <path
           d="m -456.00789,697.50597 0,4.60145 -4.63003,0 q -1.28612,0 -2.40076,-0.48587 -1.11463,-0.48586 -1.94347,-1.3147 -0.82883,-0.82883 -1.3147,-1.94347 -0.48587,-1.11463 -0.48587,-2.40075 l 0,-13.86152 4.63004,0 0,13.86152 q 0,0.62877 0.4287,1.08605 0.45729,0.45729 1.08606,0.45729 l 4.63003,0 z"
           style="font-style:normal;font-variant:normal;font-weight:normal;font-stretch:normal;font-size:28.58044624px;font-family:'RR Beaver';-inkscape-font-specification:'RR Beaver';fill:#29b6f6;fill-opacity:1"
           id="path4213"
           inkscape:connector-curvature="0" />
        <path
           d="m -454.83698,682.10111 4.60145,0 0,20.00631 -4.60145,0 0,-20.00631 0,0 z"
           style="font-style:normal;font-variant:normal;font-weight:normal;font-stretch:normal;font-size:28.58044624px;font-family:'RR Beaver';-inkscape-font-specification:'RR Beaver';fill:#29b6f6;fill-opacity:1"
           id="path4215"
           inkscape:connector-curvature="0" />
        <path
           d="m -433.76695,695.96263 q 0,1.28612 -0.48586,2.40075 -0.48587,1.11464 -1.31471,1.94347 -0.82883,0.82884 -1.94347,1.3147 -1.11463,0.48587 -2.40075,0.48587 l -3.08669,0 q -1.28612,0 -2.40076,-0.48587 -1.11464,-0.48586 -1.94347,-1.3147 -0.82883,-0.82883 -1.3147,-1.94347 -0.48587,-1.11463 -0.48587,-2.40075 l 0,-13.86152 4.60145,0 0,13.86152 q 0,0.62877 0.42871,1.08605 0.45729,0.45729 1.11464,0.45729 l 3.08669,0 q 0.65735,0 1.08605,-0.45729 0.45729,-0.45728 0.45729,-1.08605 l 0,-13.86152 4.60145,0 0,13.86152 z"
           style="font-style:normal;font-variant:normal;font-weight:normal;font-stretch:normal;font-size:28.58044624px;font-family:'RR Beaver';-inkscape-font-specification:'RR Beaver';fill:#29b6f6;fill-opacity:1"
           id="path4217"
           inkscape:connector-curvature="0" />
        <path
           d="m -418.81446,682.10111 q 1.28612,0 2.40076,0.48587 1.11464,0.48586 1.94347,1.3147 0.82883,0.82883 1.3147,1.94347 0.48587,1.11464 0.48587,2.40076 l 0,13.86151 -4.60145,0 0,-13.86151 q 0,-0.62877 -0.45729,-1.05748 -0.42871,-0.45729 -1.08606,-0.45729 -0.65735,0 -1.11463,0.45729 -0.42871,0.42871 -0.42871,1.05748 l 0,13.86151 -4.60145,0 0,-13.86151 q 0,-0.62877 -0.45729,-1.05748 -0.42871,-0.45729 -1.08606,-0.45729 -0.65735,0 -1.11463,0.45729 -0.42871,0.42871 -0.42871,1.05748 l 0,13.86151 -4.63003,0 0,-13.86151 q 0,-1.28612 0.48587,-2.40076 0.48586,-1.11464 1.3147,-1.94347 0.85741,-0.82884 1.97205,-1.3147 1.11463,-0.48587 2.40075,-0.48587 1.08606,0 2.0578,0.37155 1.00031,0.34296 1.77198,0.97173 0.80026,-0.62877 1.77199,-0.97173 1.00032,-0.37155 2.08637,-0.37155 z"
           style="font-style:normal;font-variant:normal;font-weight:normal;font-stretch:normal;font-size:28.58044624px;font-family:'RR Beaver';-inkscape-font-specification:'RR Beaver';fill:#29b6f6;fill-opacity:1"
           id="path4219"
           inkscape:connector-curvature="0" />
        <path
           d="m -396.59451,689.78925 6.1448,0 0,4.63003 0,1.54335 q 0,1.28612 -0.48587,2.40075 -0.48586,1.11464 -1.3147,1.94347 -0.82883,0.82884 -1.94347,1.3147 -1.11464,0.48587 -2.40076,0.48587 l -3.08668,0 q -1.28612,0 -2.40076,-0.48587 -1.11464,-0.48586 -1.94347,-1.3147 -0.82883,-0.82883 -1.3147,-1.94347 -0.48587,-1.11463 -0.48587,-2.40075 l 0,-7.71672 q 0,-1.28612 0.48587,-2.40076 0.48587,-1.11464 1.3147,-1.94347 0.82883,-0.82884 1.94347,-1.3147 1.11464,-0.48587 2.40076,-0.48587 l 3.08668,0 q 1.28612,0 2.40076,0.48587 1.11464,0.48586 1.94347,1.3147 0.82884,0.82883 1.3147,1.94347 0.48587,1.11464 0.48587,2.40076 l -4.60145,0 q 0,-0.62877 -0.45729,-1.05748 -0.4287,-0.45729 -1.08606,-0.45729 l -3.08668,0 q -0.65735,0 -1.11464,0.45729 -0.42871,0.42871 -0.42871,1.05748 l 0,7.71672 q 0,0.62877 0.42871,1.08605 0.45729,0.45729 1.11464,0.45729 l 3.08668,0 q 0.65736,0 1.08606,-0.45729 0.45729,-0.45728 0.45729,-1.08605 l 0,-1.54335 -1.54335,0 0,-4.63003 z"
           style="font-style:normal;font-variant:normal;font-weight:normal;font-stretch:normal;font-size:28.58044624px;font-family:'RR Beaver';-inkscape-font-specification:'RR Beaver';fill:#29b6f6;fill-opacity:1"
           id="path4221"
           inkscape:connector-curvature="0" />
        <path
           d="m -378.52809,702.10742 -3.08669,-11.48934 -3.08669,11.48934 -4.60145,0 5.34455,-20.00631 0.0572,0 4.57287,0 0.0572,0 5.34454,20.00631 -4.60145,0 z"
           style="font-style:normal;font-variant:normal;font-weight:normal;font-stretch:normal;font-size:28.58044624px;font-family:'RR Beaver';-inkscape-font-specification:'RR Beaver';fill:#29b6f6;fill-opacity:1"
           id="path4223"
           inkscape:connector-curvature="0" />
        <path
           d="m -358.91833,682.10111 q 1.28612,0 2.40076,0.48587 1.11463,0.48586 1.94347,1.3147 0.82883,0.82883 1.3147,1.94347 0.48587,1.11464 0.48587,2.40076 l 0,13.86151 -4.60146,0 0,-13.86151 q 0,-0.62877 -0.45728,-1.05748 -0.42871,-0.45729 -1.08606,-0.45729 -0.65735,0 -1.11464,0.45729 -0.4287,0.42871 -0.4287,1.05748 l 0,13.86151 -4.60146,0 0,-13.86151 q 0,-0.62877 -0.45728,-1.05748 -0.42871,-0.45729 -1.08606,-0.45729 -0.65735,0 -1.11464,0.45729 -0.4287,0.42871 -0.4287,1.05748 l 0,13.86151 -4.63004,0 0,-13.86151 q 0,-1.28612 0.48587,-2.40076 0.48587,-1.11464 1.3147,-1.94347 0.85741,-0.82884 1.97205,-1.3147 1.11464,-0.48587 2.40076,-0.48587 1.08606,0 2.05779,0.37155 1.00032,0.34296 1.77199,0.97173 0.80025,-0.62877 1.77199,-0.97173 1.00031,-0.37155 2.08637,-0.37155 z"
           style="font-style:normal;font-variant:normal;font-weight:normal;font-stretch:normal;font-size:28.58044624px;font-family:'RR Beaver';-inkscape-font-specification:'RR Beaver';fill:#29b6f6;fill-opacity:1"
           id="path4225"
           inkscape:connector-curvature="0" />
        <path
           d="m -345.53465,686.73114 q -0.65735,0 -1.11464,0.45729 -0.4287,0.42871 -0.4287,1.05748 l 0,1.54334 10.77483,0 0,4.63003 -10.77483,0 0,1.54335 q 0,0.62877 0.4287,1.08605 0.45729,0.45729 1.11464,0.45729 l 9.23149,0 0,4.60145 -9.23149,0 q -1.28612,0 -2.40076,-0.48587 -1.11463,-0.48586 -1.94347,-1.3147 -0.82883,-0.82883 -1.3147,-1.94347 -0.48586,-1.11463 -0.48586,-2.40075 l 0,-7.71672 q 0,-1.28612 0.48586,-2.40076 0.48587,-1.11464 1.3147,-1.94347 0.82884,-0.82884 1.94347,-1.3147 1.11464,-0.48587 2.40076,-0.48587 l 9.23149,0 0,4.63003 -9.23149,0 0,0 z"
           style="font-style:normal;font-variant:normal;font-weight:normal;font-stretch:normal;font-size:28.58044624px;font-family:'RR Beaver';-inkscape-font-specification:'RR Beaver';fill:#29b6f6;fill-opacity:1"
           id="path4227"
           inkscape:connector-curvature="0" />
        <path
           d="m -325.92489,689.78925 q 1.28612,0 2.40076,0.48587 1.11464,0.48586 1.94347,1.34328 0.82883,0.82883 1.3147,1.94347 0.48587,1.11464 0.48587,2.40076 0,1.28612 -0.48587,2.40075 -0.48587,1.11464 -1.3147,1.94347 -0.82883,0.82884 -1.94347,1.3147 -1.11464,0.48587 -2.40076,0.48587 l -9.23148,0 0,-4.60145 9.23148,0 q 0.65735,-0.0286 1.08606,-0.45729 0.45729,-0.45728 0.45729,-1.08605 0,-0.65735 -0.45729,-1.08606 -0.42871,-0.45729 -1.08606,-0.45729 l -3.08669,0 q -1.28612,0 -2.40075,-0.48587 -1.11464,-0.48586 -1.94347,-1.3147 -0.82884,-0.85741 -1.31471,-1.97205 -0.48586,-1.11463 -0.48586,-2.40075 0,-1.28612 0.48586,-2.40076 0.48587,-1.11464 1.31471,-1.94347 0.82883,-0.82884 1.94347,-1.3147 1.11463,-0.48587 2.40075,-0.48587 l 6.1448,0 0,4.63003 -6.1448,0 q -0.65735,0 -1.11463,0.45729 -0.42871,0.42871 -0.42871,1.05748 0,0.65735 0.42871,1.11463 0.45728,0.42871 1.11463,0.42871 l 3.08669,0 0,0 z"
           style="font-style:normal;font-variant:normal;font-weight:normal;font-stretch:normal;font-size:28.58044624px;font-family:'RR Beaver';-inkscape-font-specification:'RR Beaver';fill:#29b6f6;fill-opacity:1"
           id="path4229"
           inkscape:connector-curvature="0" />
      </g>
      <path
         sodipodi:nodetypes="ccccc"
         inkscape:connector-curvature="0"
         id="rect3341"
         d="m -557.38098,706.88598 250,0 -10,10 -230,0 z"
         style="opacity:1;fill:#29b6f6;fill-opacity:1;fill-rule:evenodd;stroke:none;stroke-width:10;stroke-linecap:round;stroke-linejoin:miter;stroke-miterlimit:0;stroke-dasharray:none;stroke-dashoffset:0;stroke-opacity:1" />
    </g>
  </g>
</svg>
