<?xml version="1.0" encoding="UTF-8" standalone="no"?>
<!-- Created with Inkscape (http://www.inkscape.org/) -->

<svg
   xmlns:dc="http://purl.org/dc/elements/1.1/"
   xmlns:cc="http://creativecommons.org/ns#"
   xmlns:rdf="http://www.w3.org/1999/02/22-rdf-syntax-ns#"
   xmlns:svg="http://www.w3.org/2000/svg"
   xmlns="http://www.w3.org/2000/svg"
   xmlns:sodipodi="http://sodipodi.sourceforge.net/DTD/sodipodi-0.dtd"
   xmlns:inkscape="http://www.inkscape.org/namespaces/inkscape"
   width="480"
   height="100"
   viewBox="0 0 480 100"
   id="svg2"
   version="1.1"
   inkscape:version="0.91 r13725"
   sodipodi:docname="WatermarkDesign.svg">
  <defs
     id="defs4">
    <style
       id="style4136">.cls-1{fill:none;}.cls-2{fill:#1da1f2;}</style>
    <style
       id="style4156">.cls-1{fill:none;}.cls-2{fill:#1da1f2;}</style>
  </defs>
  <sodipodi:namedview
     id="base"
     pagecolor="#ffffff"
     bordercolor="#666666"
     borderopacity="1.0"
     inkscape:pageopacity="0.0"
     inkscape:pageshadow="2"
     inkscape:zoom="1"
     inkscape:cx="279.96296"
     inkscape:cy="8.9532815"
     inkscape:document-units="px"
     inkscape:current-layer="g4149"
     showgrid="false"
     units="px"
     inkscape:window-width="1366"
     inkscape:window-height="705"
     inkscape:window-x="-8"
     inkscape:window-y="-8"
     inkscape:window-maximized="1"
     fit-margin-top="0"
     fit-margin-left="0"
     fit-margin-right="0"
     fit-margin-bottom="0" />
  <metadata
     id="metadata7">
    <rdf:RDF>
      <cc:Work
         rdf:about="">
        <dc:format>image/svg+xml</dc:format>
        <dc:type
           rdf:resource="http://purl.org/dc/dcmitype/StillImage" />
        <dc:title></dc:title>
      </cc:Work>
    </rdf:RDF>
  </metadata>
  <g
     inkscape:label="Layer 1"
     inkscape:groupmode="layer"
     id="layer1"
     transform="translate(102.99998,-1114.2371)">
    <g
       id="g4149"
       transform="translate(-205.07937,672.32688)">
      <rect
         style="opacity:1;fill:#212121;fill-opacity:1;fill-rule:nonzero;stroke:#000000;stroke-width:1.34881973;stroke-linecap:round;stroke-linejoin:round;stroke-miterlimit:4;stroke-dasharray:none;stroke-dashoffset:0;stroke-opacity:1"
         id="rect4234"
         width="478.65118"
         height="98.651176"
         x="102.7538"
         y="442.58466" />
      <g
         id="g4240"
         transform="translate(-65.702504,47.874963)">
        <path
           style="fill:#1ca0f1"
           d="m 198.4042,493.75102 c -8.79694,-0.82374 -17.06758,-3.09 -24.8062,-6.79714 l -4.01862,-1.92506 5.02326,-0.35806 c 7.8168,-0.55714 13.6171,-2.14 20.59536,-5.62022 5.93352,-2.95918 8.37842,-4.75872 8.19196,-6.02958 -0.1304,-0.88764 -0.71408,-1.14852 -3.68764,-1.6477 -4.6523,-0.781 -8.62542,-2.71752 -12.12628,-5.91036 -2.41502,-2.20254 -6.69598,-7.85156 -6.6936,-8.83266 4e-4,-0.1644 1.776,-0.32988 3.94576,-0.3678 6.39312,-0.1116 8.12918,-1.99742 3.33068,-3.61782 -3.8472,-1.29918 -6.74606,-3.19932 -9.85602,-6.46038 -3.79408,-3.9785 -5.89174,-8.21098 -6.71754,-13.55414 l -0.32474,-2.10122 2.61268,0.99272 c 1.437,0.546 3.76302,1.03948 5.169,1.0966 3.49042,0.1416 3.6394,-0.90398 0.53442,-3.75156 -5.09198,-4.6699 -7.8325,-10.93722 -7.86902,-17.99578 -0.0212,-3.96146 0.91652,-8.70078 2.07008,-10.4703 0.3296,-0.5056 1.56848,0.43942 4.93892,3.76748 8.1959,8.09286 17.9098,14.00784 29.06322,17.69714 8.86292,2.93168 19.71778,4.53956 19.8834,2.94524 0.036,-0.34536 0.014,-2.49136 -0.0508,-4.7689 -0.20884,-7.44684 1.7703,-12.80836 6.65576,-18.03092 4.41196,-4.71642 8.13526,-6.67118 14.70626,-7.7209 6.36248,-1.01642 13.64724,1.05528 19.1717,5.45212 1.44232,1.14794 3.15178,2.08718 3.79876,2.08718 1.35537,0 8.93033,-2.48446 11.28061,-3.69982 0.8733,-0.45162 1.7167,-0.82112 1.87418,-0.82112 0.93824,0 -2.4012,4.77872 -5.3268,7.6226 -4.28772,4.16794 -4.48878,5.20288 -0.91866,4.7293 1.39176,-0.1848 3.9251,-0.76974 5.6296,-1.30024 1.7045,-0.5305 3.2097,-0.85394 3.3449,-0.71876 0.1352,0.1354 -2.14144,2.55902 -5.05918,5.38626 l -5.30496,5.14046 -0.35122,5.51902 c -1.0881,17.09914 -5.94667,30.4227 -15.82677,43.40176 -6.0234,7.91268 -16.47528,16.33584 -25.20904,20.31592 -11.21242,5.10966 -25.38536,7.4973 -37.67332,6.34664 z"
           id="path4210"
           inkscape:connector-curvature="0" />
        <g
           style="font-style:normal;font-variant:normal;font-weight:bold;font-stretch:normal;font-size:62.5px;line-height:125%;font-family:'Century Gothic';-inkscape-font-specification:'Century Gothic Bold';letter-spacing:0px;word-spacing:0px;fill:#ffffff;fill-opacity:1;stroke:none;stroke-width:1px;stroke-linecap:butt;stroke-linejoin:miter;stroke-opacity:1"
           id="text4236">
          <path
             d="m 299.57938,421.5896 10.13183,0 q 9.79614,0 14.55689,2.44141 4.76074,2.41088 7.84301,7.87353 3.08228,5.46265 3.08228,12.75635 0,5.18799 -1.7395,9.552 -1.70899,4.3335 -4.76074,7.20215 -3.02124,2.86865 -6.56128,3.96728 -3.54004,1.09864 -12.26807,1.09864 l -10.28442,0 0,-44.89136 z m 8.5144,8.23975 0,28.28979 3.96729,0 q 5.85937,0 8.48388,-1.34277 2.65503,-1.34278 4.3335,-4.5166 1.67847,-3.17383 1.67847,-7.8125 0,-7.14112 -3.99781,-11.07789 -3.60107,-3.54003 -11.56616,-3.54003 l -2.89917,0 z"
             id="path4246"
             inkscape:connector-curvature="0" />
          <path
             d="m 341.57156,420.46045 8.3313,0 0,46.02051 -8.3313,0 0,-46.02051 z"
             id="path4248"
             inkscape:connector-curvature="0" />
          <path
             d="m 390.73538,452.29028 -26.76391,0 q 0.57983,3.54004 3.08227,5.64576 2.53296,2.07519 6.43921,2.07519 4.66919,0 8.02612,-3.26538 l 7.01905,3.2959 q -2.62452,3.72314 -6.28662,5.52368 -3.66211,1.77002 -8.69751,1.77002 -7.8125,0 -12.72583,-4.91333 -4.91333,-4.94385 -4.91333,-12.35962 0,-7.59888 4.88281,-12.60376 4.91333,-5.0354 12.29858,-5.0354 7.84302,0 12.75635,5.0354 4.91333,5.00488 4.91333,13.24463 l -0.0305,1.58691 z m -8.36181,-6.56128 q -0.82398,-2.7771 -3.26539,-4.5166 -2.41088,-1.7395 -5.61523,-1.7395 -3.479,0 -6.10352,1.95313 -1.64794,1.2207 -3.05175,4.30297 l 18.03589,0 z"
             id="path4250"
             inkscape:connector-curvature="0" />
          <path
             d="m 422.04642,433.27783 8.30078,0 0,33.20313 -8.30078,0 0,-3.50952 q -2.44141,2.31933 -4.91333,3.35693 -2.44141,1.00708 -5.31006,1.00708 -6.43921,0 -11.13892,-4.97437 -4.6997,-5.00488 -4.6997,-12.42065 0,-7.69043 4.54711,-12.60376 4.54712,-4.91333 11.04737,-4.91333 2.99072,0 5.61523,1.12915 2.62451,1.12915 4.8523,3.38745 l 0,-3.66211 z m -8.75855,6.83594 q -3.87573,0 -6.43921,2.74658 -2.56347,2.71607 -2.56347,6.98853 0,4.30298 2.59399,7.08008 2.62451,2.77709 6.43921,2.77709 3.93677,0 6.53076,-2.71606 2.594,-2.74658 2.594,-7.17163 0,-4.3335 -2.594,-7.01904 -2.59399,-2.68555 -6.56128,-2.68555 z"
             id="path4252"
             inkscape:connector-curvature="0" />
          <path
             d="m 438.77005,433.27783 8.30078,0 0,3.38745 q 2.83814,-2.38037 5.12695,-3.2959 2.31934,-0.94604 4.73023,-0.94604 4.94385,0 8.39233,3.44849 2.89917,2.92968 2.89917,8.66699 l 0,21.94214 -8.23974,0 0,-14.55689 q 0,-5.95093 -0.54932,-7.90405 -0.5188,-1.95313 -1.86157,-2.96021 -1.31226,-1.03759 -3.26538,-1.03759 -2.53296,0 -4.36402,1.70898 -1.80053,1.67847 -2.50244,4.66919 -0.36621,1.5564 -0.36621,6.74439 l 0,13.33618 -8.30078,0 0,-33.20313 z"
             id="path4254"
             inkscape:connector-curvature="0" />
          <path
             d="m 488.3306,421.5896 8.57544,0 0,29.78516 q 0,7.11059 -1.12915,9.97924 -1.12915,2.86866 -3.72315,4.57764 -2.59399,1.67847 -6.22558,1.67847 -7.41578,0 -12.63428,-6.50025 l 6.16455,-5.76782 q 2.04468,2.31934 3.479,3.11279 1.43433,0.79346 2.7771,0.79346 1.37329,0 2.04468,-1.15967 0.67139,-1.15966 0.67139,-5.09643 l 0,-31.40259 z"
             id="path4256"
             inkscape:connector-curvature="0" />
          <path
             d="m 539.53909,452.29028 -26.76391,0 q 0.57983,3.54004 3.08227,5.64576 2.53296,2.07519 6.43921,2.07519 4.66919,0 8.02612,-3.26538 l 7.01905,3.2959 q -2.62451,3.72314 -6.28662,5.52368 -3.66211,1.77002 -8.69751,1.77002 -7.8125,0 -12.72583,-4.91333 -4.91333,-4.94385 -4.91333,-12.35962 0,-7.59888 4.88281,-12.60376 4.91333,-5.0354 12.29858,-5.0354 7.84302,0 12.75635,5.0354 4.91333,5.00488 4.91333,13.24463 l -0.0305,1.58691 z m -8.36181,-6.56128 q -0.82398,-2.7771 -3.26538,-4.5166 -2.41089,-1.7395 -5.61524,-1.7395 -3.479,0 -6.10351,1.95313 -1.64795,1.2207 -3.05176,4.30297 l 18.03589,0 z"
             id="path4258"
             inkscape:connector-curvature="0" />
          <path
             d="m 570.85013,433.27783 8.30078,0 0,33.20313 -8.30078,0 0,-3.50952 q -2.44141,2.31933 -4.91333,3.35693 -2.44141,1.00708 -5.31006,1.00708 -6.43921,0 -11.13892,-4.97437 -4.6997,-5.00488 -4.6997,-12.42065 0,-7.69043 4.54712,-12.60376 4.54711,-4.91333 11.04736,-4.91333 2.99072,0 5.61523,1.12915 2.62451,1.12915 4.8523,3.38745 l 0,-3.66211 z m -8.75855,6.83594 q -3.87573,0 -6.43921,2.74658 -2.56347,2.71607 -2.56347,6.98853 0,4.30298 2.59399,7.08008 2.62451,2.77709 6.43921,2.77709 3.93677,0 6.53076,-2.71606 2.594,-2.74658 2.594,-7.17163 0,-4.3335 -2.594,-7.01904 -2.59399,-2.68555 -6.56128,-2.68555 z"
             id="path4260"
             inkscape:connector-curvature="0" />
          <path
             d="m 587.57376,433.27783 8.30078,0 0,3.38745 q 2.83814,-2.38037 5.12696,-3.2959 2.31933,-0.94604 4.73022,-0.94604 4.94385,0 8.39233,3.44849 2.89917,2.92968 2.89917,8.66699 l 0,21.94214 -8.23974,0 0,-14.55689 q 0,-5.95093 -0.54932,-7.90405 -0.5188,-1.95313 -1.86157,-2.96021 -1.31226,-1.03759 -3.26538,-1.03759 -2.53296,0 -4.36402,1.70898 -1.80053,1.67847 -2.50244,4.66919 -0.36621,1.5564 -0.36621,6.74439 l 0,13.33618 -8.30078,0 0,-33.20313 z"
             id="path4262"
             inkscape:connector-curvature="0" />
          <path
             d="m 645.37405,437.9165 -5.15747,5.15747 q -3.14331,-3.11279 -5.70678,-3.11279 -1.40381,0 -2.19727,0.61035 -0.79346,0.57984 -0.79346,1.46485 0,0.67138 0.48828,1.25122 0.5188,0.54931 2.50245,1.52588 l 3.05175,1.52588 q 4.82178,2.38037 6.62232,4.85229 1.80054,2.47192 1.80054,5.79834 0,4.42505 -3.26539,7.38525 -3.23486,2.96021 -8.69751,2.96021 -7.26318,0 -11.59667,-5.67627 l 5.12695,-5.58472 q 1.46484,1.70899 3.41797,2.7771 1.98364,1.0376 3.50952,1.0376 1.64795,0 2.65503,-0.79346 1.00708,-0.79345 1.00708,-1.83105 0,-1.92261 -3.63159,-3.75366 l -2.80762,-1.40381 q -8.05664,-4.05884 -8.05664,-10.16236 0,-3.93676 3.02124,-6.71386 3.05176,-2.80762 7.78198,-2.80762 3.23486,0 6.073,1.43433 2.86865,1.4038 4.85229,4.05883 z"
             id="path4264"
             inkscape:connector-curvature="0" />
        </g>
      </g>
    </g>
  </g>
</svg>
